<svg id="Layer_1" data-name="Layer 1" xmlns="http://www.w3.org/2000/svg" viewBox="0 0 97.12 97.16"><defs><style>.cls-1{fill:#010101;}.cls-2{fill:#71ccd8;}</style></defs><title>icon1</title><path class="cls-1" d="M645.58,707.1v4.79a2.17,2.17,0,0,0,3.69,1.53l6-6h15.17a5.6,5.6,0,0,0,5.59-5.6V691.19a5.6,5.6,0,0,0-5.59-5.6H647.4a5.6,5.6,0,0,0-5.6,5.6v10.62a5.62,5.62,0,0,0,3.78,5.29Zm-.93-15.91a2.75,2.75,0,0,1,2.75-2.75h23.05a2.75,2.75,0,0,1,2.75,2.75v10.62a2.75,2.75,0,0,1-2.75,2.75H654.94a2,2,0,0,0-1.44.6l-5.07,5.07v-3.74a2,2,0,0,0-1.6-2,2.76,2.76,0,0,1-2.18-2.69V691.19Z" transform="translate(-579.4 -685.59)"/><path class="cls-1" d="M672.74,769.09H670V724.34a5.35,5.35,0,0,0-5.35-5.34H638.07a1.42,1.42,0,1,0,0,2.84h26.61a2.51,2.51,0,0,1,2.51,2.5v44.75h-4.74V730.61a4,4,0,0,0-4-4H629.36a13.88,13.88,0,0,0,.83-3.43,3.39,3.39,0,0,0,2.65-3.3v-12.3a344.55,344.55,0,0,0-10.2-10.07H609.88a10,10,0,0,0-10,9.94v12.43a3.4,3.4,0,0,0,2.65,3.3,13.46,13.46,0,0,0,.84,3.43H597.5a4,4,0,0,0-4,4v11.62a11.66,11.66,0,0,0-4.74,3.33V724.34a2.5,2.5,0,0,1,2.5-2.5h3.55a1.42,1.42,0,1,0,0-2.84h-3.55a5.35,5.35,0,0,0-5.35,5.34v44.75h-2.7a3.78,3.78,0,0,0-3.78,3.78,9.89,9.89,0,0,0,9.88,9.88h77.35a9.9,9.9,0,0,0,9.89-9.88A3.79,3.79,0,0,0,672.74,769.09Zm-14.32-39.66a1.18,1.18,0,0,1,1.18,1.18v38.48H646.9v-5.21a1.43,1.43,0,0,0-2.85,0v5.21h-6.83v-4.51a1.42,1.42,0,1,0-2.84,0v4.51H622.8l-3.06-17.29,1.17-2.11a3.3,3.3,0,0,0,3-.84l5.28-5.14a3.09,3.09,0,0,0,.79-1.3l7.78,2.28a8.89,8.89,0,0,1,6.34,8.48v4.06a1.43,1.43,0,0,0,2.85,0v-4.06A11.75,11.75,0,0,0,638.51,742l-9.39-2.75a3.17,3.17,0,0,0-.89-.6l-1.94-.87a4,4,0,0,0-1.79-.32v-4.54a14.12,14.12,0,0,0,3.36-3.45Zm-52.66,11.76,1.91-.85a1,1,0,0,1,1,.1l5.62,4.2-2.76,2.3a.4.4,0,0,1-.53,0l-5.27-5.27h0a.29.29,0,0,1,.08-.46Zm15.9-6.73v4.35l-5.15,4-5.39-4v-4.29a13.84,13.84,0,0,0,10.54,0Zm5.41,6.75a.29.29,0,0,1,.09.46l-5.28,5.13a.4.4,0,0,1-.54,0h0l-2.56-2.19,5.39-4.17a1,1,0,0,1,1-.12Zm-12,8.91-.8-1.82,1.68-1.86,1.51,1.7-.83,2Zm.63,2.85h1.34l2.85,16.12h-7Zm24.91,19a4,4,0,0,1-3.72,2.56H619a4,4,0,0,1-3.72-2.56Zm-37.85-64.52a7.11,7.11,0,0,1,7.1-7.1h12.76a2.29,2.29,0,0,1,2.28,2.28,2.67,2.67,0,0,0,2.67,2.67h.12a2.29,2.29,0,0,1,2.28,2.28v6.67h-1.13a1.15,1.15,0,0,1-1.15-1.16v-1.41a4.14,4.14,0,0,0-5.45-3.93,18.85,18.85,0,0,1-11.74,0h0a4.13,4.13,0,0,0-5.43,3.93v1.41a1.16,1.16,0,0,1-1.16,1.16h-1.13Zm0,12.43v-2.79h1.13a4,4,0,0,0,4-4v-1.41a1.3,1.3,0,0,1,1.71-1.23h0a21.8,21.8,0,0,0,13.53,0,1.3,1.3,0,0,1,1.7,1.23v1.41a4,4,0,0,0,4,4H630v2.79a.52.52,0,0,1-.52.53,2.07,2.07,0,0,0-2.06,1.94,11,11,0,0,1-22,0,2.07,2.07,0,0,0-2.05-1.94.53.53,0,0,1-.53-.53Zm-5.28,9.58h7.41a14.12,14.12,0,0,0,3.36,3.45v4.54a3.76,3.76,0,0,0-1.77.32l-1.9.86a2.78,2.78,0,0,0-.88.59l-7.41,2.17V730.61a1.19,1.19,0,0,1,1.19-1.18Zm-8.77,23.74a8.89,8.89,0,0,1,6.34-8.48l.23-.07h0l7.58-2.22a3,3,0,0,0,.77,1.26h0l5.27,5.28,0,0a3.24,3.24,0,0,0,2.26.92,3,3,0,0,0,.66-.07l1.16,2L610,769.09H598.4v-4.51a1.43,1.43,0,1,0-2.85,0v4.51h-6.82Zm77.9,26.73H589.28a7,7,0,0,1-7-7,.93.93,0,0,1,.94-.93h29.14a6.84,6.84,0,0,0,6.68,5.4h17.91a6.83,6.83,0,0,0,6.68-5.4h29.15a.93.93,0,0,1,.93.93A7,7,0,0,1,666.63,779.9Z" transform="translate(-579.4 -685.59)"/><path class="cls-2" d="M666.63,779.9H589.28a7,7,0,0,1-7-7,.93.93,0,0,1,.94-.93h29.14a6.84,6.84,0,0,0,6.68,5.4h17.91a6.83,6.83,0,0,0,6.68-5.4h29.15a.93.93,0,0,1,.93.93A7,7,0,0,1,666.63,779.9Z" transform="translate(-579.4 -685.59)"/><path class="cls-2" d="M644.65,691.19a2.75,2.75,0,0,1,2.75-2.75h23.05a2.75,2.75,0,0,1,2.75,2.75v10.62a2.75,2.75,0,0,1-2.75,2.75H654.94a2,2,0,0,0-1.44.6l-5.07,5.07v-3.74a2,2,0,0,0-1.6-2,2.76,2.76,0,0,1-2.18-2.69V691.19Z" transform="translate(-579.4 -685.59)"/><path class="cls-2" d="M602.78,707.42a7.11,7.11,0,0,1,7.1-7.1h12.76a2.29,2.29,0,0,1,2.28,2.28,2.67,2.67,0,0,0,2.67,2.67h.12a2.29,2.29,0,0,1,2.28,2.28v6.67h-1.13a1.15,1.15,0,0,1-1.15-1.16v-1.41a4.14,4.14,0,0,0-5.45-3.93,18.85,18.85,0,0,1-11.74,0h0a4.13,4.13,0,0,0-5.43,3.93v1.41a1.16,1.16,0,0,1-1.16,1.16h-1.13Z" transform="translate(-579.4 -685.59)"/><path class="cls-2" d="M605.76,741.19l1.91-.85a1,1,0,0,1,1,.1l5.62,4.2-2.76,2.3a.4.4,0,0,1-.53,0l-5.27-5.27h0a.29.29,0,0,1,.08-.46Z" transform="translate(-579.4 -685.59)"/><path class="cls-2" d="M627.07,741.21a.29.29,0,0,1,.09.46l-5.28,5.13a.4.4,0,0,1-.54,0h0l-2.56-2.19,5.39-4.17a1,1,0,0,1,1-.12Z" transform="translate(-579.4 -685.59)"/><polygon class="cls-2" points="35.69 64.53 34.89 62.71 36.58 60.85 38.09 62.55 37.25 64.53 35.69 64.53"/><polygon class="cls-2" points="36.33 67.38 37.66 67.38 40.52 83.5 33.47 83.5 36.33 67.38"/></svg>