<svg xmlns="http://www.w3.org/2000/svg" width="32.035" height="32.046" viewBox="0 0 32.035 32.046">
  <g id="Group_275" data-name="Group 275" transform="translate(-281.049 -12050.106)">
    <path id="Path_3264" data-name="Path 3264" d="M305.831,12082.152l6.222,0a1,1,0,0,0,1-1c-.467-10.491,2.46-21.562-8.462-21.562a7.94,7.94,0,0,0-4.979,1.665c0-1.951-2.109-.872-6.976-1.162a1,1,0,0,0-1,1c.4,18.915-.9,21.059,1,21.059h6.222c1.807,0,.657-2.548,1-10.933,0-3.464,1-4.142,2.732-4.142,1.915,0,2.236,1.33,2.236,4.31C305.172,12079.62,304.031,12082.152,305.831,12082.152Zm-3.238-17.079c-6,0-4.735,6.593-4.735,15.075h-4.219v-18.055h3.971v1.733a1.062,1.062,0,0,0,1.975.467,5.563,5.563,0,0,1,5.007-2.7c4.709,0,6.459,2.313,6.459,8.54v10.019h-4.219c0-9.539,1.01-15.076-4.239-15.076Z" fill="#00fff8"/>
    <path id="Path_3265" data-name="Path 3265" d="M282.507,12060.092c-1.9,0-.6,2.117-1,21.059a1,1,0,0,0,1,1h6.229c1.9,0,.6-2.117,1-21.059C289.737,12059.365,287.226,12060.385,282.507,12060.092Zm5.227,20.058h-4.226v-18.055h4.226Z" fill="#00fff8"/>
    <path id="Path_3266" data-name="Path 3266" d="M285.618,12050.106c-6.11,0-6.073,9.252,0,9.252S291.735,12050.106,285.618,12050.106Zm0,7.249c-3.429,0-3.461-5.246,0-5.246S289.042,12057.355,285.618,12057.355Z" fill="#00fff8"/>
  </g>
</svg>
