<svg xmlns="http://www.w3.org/2000/svg" width="1727.598" height="1198.422" viewBox="0 0 1727.598 1198.422">
  <g id="Group_185" data-name="Group 185" transform="translate(-325.974 -8515.41)">
    <path id="Path_795" data-name="Path 795" d="M1967.666,8995.148s181.414,141.768,15.38,158.146-153.479-148.961-319.905-5.208-46.794,212-137.623,343.715-384.272,27.4-580.213,60.527-405.727,161.076-405.727,161.076" fill="none" stroke="#e6e6e6" stroke-miterlimit="10" stroke-width="1"/>
    <path id="Path_796" data-name="Path 796" d="M1957.969,8973.36s181.414,141.767,15.38,158.146-153.48-148.96-319.905-5.207-46.794,212-137.624,343.715-384.272,27.4-580.212,60.527S529.88,9691.617,529.88,9691.617" fill="none" stroke="#e6e6e6" stroke-miterlimit="10" stroke-width="1"/>
    <path id="Path_797" data-name="Path 797" d="M1948.271,8951.571s181.414,141.768,15.38,158.146-153.479-148.96-319.905-5.208-46.794,212-137.623,343.715-384.272,27.4-580.213,60.528-405.727,161.076-405.727,161.076" fill="none" stroke="#e6e6e6" stroke-miterlimit="10" stroke-width="1"/>
    <path id="Path_798" data-name="Path 798" d="M1938.574,8929.783s181.414,141.768,15.38,158.146-153.479-148.961-319.905-5.208-46.794,212-137.624,343.715-384.271,27.4-580.212,60.527S510.485,9648.04,510.485,9648.04" fill="none" stroke="#e6e6e6" stroke-miterlimit="10" stroke-width="1"/>
    <path id="Path_799" data-name="Path 799" d="M1928.876,8908s181.414,141.767,15.38,158.146-153.479-148.96-319.9-5.207-46.794,212-137.624,343.716-384.272,27.395-580.213,60.526-405.727,161.076-405.727,161.076" fill="none" stroke="#e6e6e6" stroke-miterlimit="10" stroke-width="1"/>
    <path id="Path_800" data-name="Path 800" d="M1919.179,8886.206s181.414,141.768,15.38,158.146-153.479-148.961-319.9-5.208-46.794,212-137.624,343.716-384.271,27.4-580.212,60.527S491.09,9604.463,491.09,9604.463" fill="none" stroke="#e6e6e6" stroke-miterlimit="10" stroke-width="1"/>
    <path id="Path_801" data-name="Path 801" d="M1909.481,8864.418s181.414,141.768,15.381,158.147-153.48-148.962-319.905-5.208-46.794,212-137.624,343.715-384.272,27.4-580.212,60.526-405.728,161.076-405.728,161.076" fill="none" stroke="#e6e6e6" stroke-miterlimit="10" stroke-width="1"/>
    <path id="Path_802" data-name="Path 802" d="M1899.784,8842.63s181.414,141.768,15.38,158.146-153.479-148.96-319.9-5.207-46.794,212-137.623,343.714-384.272,27.4-580.213,60.527S471.7,9560.887,471.7,9560.887" fill="none" stroke="#e6e6e6" stroke-miterlimit="10" stroke-width="1"/>
    <path id="Path_803" data-name="Path 803" d="M1890.086,8820.841s181.414,141.769,15.381,158.147-153.48-148.961-319.905-5.208-46.794,212-137.624,343.715-384.272,27.4-580.212,60.527S462,9539.1,462,9539.1" fill="none" stroke="#e6e6e6" stroke-miterlimit="10" stroke-width="1"/>
    <path id="Path_804" data-name="Path 804" d="M1880.389,8799.053s181.414,141.769,15.38,158.147-153.479-148.961-319.905-5.208-46.794,212-137.623,343.715-384.272,27.395-580.213,60.527S452.3,9517.31,452.3,9517.31" fill="none" stroke="#e6e6e6" stroke-miterlimit="10" stroke-width="1"/>
    <path id="Path_805" data-name="Path 805" d="M1870.692,8777.265s181.414,141.768,15.38,158.146-153.479-148.96-319.905-5.207-46.794,212-137.624,343.714-384.272,27.4-580.212,60.528S442.6,9495.522,442.6,9495.522" fill="none" stroke="#e6e6e6" stroke-miterlimit="10" stroke-width="1"/>
    <path id="Path_806" data-name="Path 806" d="M1860.994,8755.476s181.414,141.769,15.38,158.147-153.479-148.961-319.9-5.208-46.794,212-137.624,343.715-384.272,27.4-580.213,60.527-405.727,161.076-405.727,161.076" fill="none" stroke="#e6e6e6" stroke-miterlimit="10" stroke-width="1"/>
    <path id="Path_807" data-name="Path 807" d="M1851.3,8733.688s181.414,141.768,15.38,158.146-153.479-148.961-319.905-5.208-46.794,212-137.624,343.715-384.271,27.4-580.212,60.527-405.728,161.076-405.728,161.076" fill="none" stroke="#e6e6e6" stroke-miterlimit="10" stroke-width="1"/>
    <path id="Path_808" data-name="Path 808" d="M1841.6,8711.9s181.414,141.768,15.38,158.146-153.479-148.96-319.9-5.207-46.794,212-137.624,343.714-384.272,27.4-580.213,60.528-405.727,161.076-405.727,161.076" fill="none" stroke="#e6e6e6" stroke-miterlimit="10" stroke-width="1"/>
    <path id="Path_809" data-name="Path 809" d="M1831.9,8690.111s181.414,141.768,15.38,158.146S1693.8,8699.3,1527.377,8843.05s-46.794,212-137.624,343.715-384.271,27.4-580.212,60.527-405.728,161.076-405.728,161.076" fill="none" stroke="#e6e6e6" stroke-miterlimit="10" stroke-width="1"/>
    <path id="Path_810" data-name="Path 810" d="M1822.2,8668.323s181.414,141.768,15.381,158.146-153.48-148.961-319.9-5.208-46.794,212-137.624,343.715-384.272,27.4-580.212,60.527S394.116,9386.58,394.116,9386.58" fill="none" stroke="#e6e6e6" stroke-miterlimit="10" stroke-width="1"/>
    <path id="Path_811" data-name="Path 811" d="M1812.507,8646.534s181.414,141.768,15.38,158.146-153.479-148.96-319.9-5.207-46.794,212-137.623,343.715-384.272,27.4-580.213,60.527-405.727,161.076-405.727,161.076" fill="none" stroke="#e6e6e6" stroke-miterlimit="10" stroke-width="1"/>
    <path id="Path_812" data-name="Path 812" d="M1802.81,8624.746s181.414,141.768,15.38,158.146-153.48-148.961-319.9-5.208-46.794,212-137.624,343.716-384.272,27.4-580.212,60.526S374.721,9343,374.721,9343" fill="none" stroke="#e6e6e6" stroke-miterlimit="10" stroke-width="1"/>
    <path id="Path_813" data-name="Path 813" d="M1793.112,8602.958s181.414,141.768,15.38,158.146-153.479-148.96-319.9-5.206-46.794,212-137.623,343.715-384.272,27.395-580.213,60.526-405.727,161.076-405.727,161.076" fill="none" stroke="#e6e6e6" stroke-miterlimit="10" stroke-width="1"/>
    <path id="Path_814" data-name="Path 814" d="M1783.415,8581.169s181.414,141.768,15.38,158.147-153.479-148.96-319.905-5.208-46.794,212-137.624,343.715-384.271,27.4-580.212,60.527-405.728,161.076-405.728,161.076" fill="none" stroke="#e6e6e6" stroke-miterlimit="10" stroke-width="1"/>
    <path id="Path_815" data-name="Path 815" d="M1773.717,8559.381s181.414,141.769,15.38,158.147-153.479-148.961-319.9-5.208-46.794,212-137.624,343.715-384.272,27.4-580.213,60.526-405.727,161.076-405.727,161.076" fill="none" stroke="#e6e6e6" stroke-miterlimit="10" stroke-width="1"/>
    <path id="Path_816" data-name="Path 816" d="M1764.02,8537.593s181.414,141.768,15.38,158.146-153.479-148.96-319.905-5.207-46.794,212-137.624,343.715-384.271,27.395-580.212,60.527S335.931,9255.85,335.931,9255.85" fill="none" stroke="#e6e6e6" stroke-miterlimit="10" stroke-width="1"/>
    <path id="Path_817" data-name="Path 817" d="M1754.322,8515.8s181.414,141.769,15.381,158.147-153.48-148.96-319.905-5.208-46.794,212-137.624,343.715-384.272,27.4-580.213,60.528-405.727,161.075-405.727,161.075" fill="none" stroke="#e6e6e6" stroke-miterlimit="10" stroke-width="1"/>
  </g>
</svg>
