<svg xmlns="http://www.w3.org/2000/svg" xmlns:xlink="http://www.w3.org/1999/xlink" width="1705.086" height="118.966" viewBox="0 0 1705.086 118.966">
  <defs>
    <clipPath id="clip-path">
      <rect id="Rectangle_108" data-name="Rectangle 108" width="1705.086" height="118.966" transform="translate(-137.604 3420.726)" fill="none"/>
    </clipPath>
  </defs>
  <g id="Group_170" data-name="Group 170" transform="translate(137.604 -3420.726)" clip-path="url(#clip-path)">
    <g id="Group_169" data-name="Group 169" transform="translate(-565.412 2997.793)">
      <path id="Path_740" data-name="Path 740" d="M-565.412,3521.02s151.74-72.223,329.988-67.844,373.071,65.656,478.953,78.787,352.32,84.522,543.6-92.311,280.516,15.712,417.774,85.746,379.533-105.333,454.5-144.675,331.281-252.479,331.281-252.479" transform="translate(565.412 -2894.232)" fill="none" stroke="#fff" stroke-miterlimit="10" stroke-width="3"/>
      <path id="Path_741" data-name="Path 741" d="M-565.412,3493.151s151.74-72.222,329.988-67.845,373.071,65.656,478.953,78.787,352.32,84.522,543.6-92.311,280.516,15.712,417.774,85.746,379.533-105.333,454.5-144.675,331.281-252.479,331.281-252.479" transform="translate(565.412 -2884.365)" fill="none" stroke="#fff" stroke-miterlimit="10" stroke-width="3"/>
      <path id="Path_742" data-name="Path 742" d="M-565.412,3465.283s151.74-72.222,329.988-67.845,373.071,65.656,478.953,78.788,352.32,84.522,543.6-92.311,280.516,15.712,417.774,85.745,379.533-105.333,454.5-144.675,331.281-252.479,331.281-252.479" transform="translate(565.412 -2874.498)" fill="none" stroke="#fff" stroke-miterlimit="10" stroke-width="3"/>
      <path id="Path_743" data-name="Path 743" d="M-565.412,3437.414s151.74-72.222,329.988-67.844,373.071,65.656,478.953,78.788,352.32,84.521,543.6-92.312,280.516,15.712,417.774,85.746,379.533-105.333,454.5-144.675,331.281-252.479,331.281-252.479" transform="translate(565.412 -2864.63)" fill="none" stroke="#fff" stroke-miterlimit="10" stroke-width="3"/>
      <path id="Path_744" data-name="Path 744" d="M-565.412,3409.547s151.74-72.222,329.988-67.845,373.071,65.656,478.953,78.788,352.32,84.522,543.6-92.311,280.516,15.712,417.774,85.746,379.533-105.334,454.5-144.675,331.281-252.479,331.281-252.479" transform="translate(565.412 -2854.763)" fill="none" stroke="#fff" stroke-miterlimit="10" stroke-width="3"/>
      <path id="Path_745" data-name="Path 745" d="M-565.412,3381.678s151.74-72.222,329.988-67.845,373.071,65.656,478.953,78.787,352.32,84.522,543.6-92.311,280.516,15.712,417.774,85.746,379.533-105.333,454.5-144.675S1990.687,2988.9,1990.687,2988.9" transform="translate(565.412 -2844.895)" fill="none" stroke="#fff" stroke-miterlimit="10" stroke-width="3"/>
      <path id="Path_746" data-name="Path 746" d="M-565.412,3353.81s151.74-72.222,329.988-67.845,373.071,65.656,478.953,78.788,352.32,84.521,543.6-92.312,280.516,15.713,417.774,85.746,379.533-105.333,454.5-144.674,331.281-252.479,331.281-252.479" transform="translate(565.412 -2835.027)" fill="none" stroke="#fff" stroke-miterlimit="10" stroke-width="3"/>
      <path id="Path_747" data-name="Path 747" d="M-565.412,3325.942s151.74-72.221,329.988-67.845,373.071,65.657,478.953,78.788,352.32,84.522,543.6-92.311,280.516,15.712,417.774,85.746,379.533-105.334,454.5-144.675,331.281-252.479,331.281-252.479" transform="translate(565.412 -2825.16)" fill="none" stroke="#fff" stroke-miterlimit="10" stroke-width="3"/>
      <path id="Path_748" data-name="Path 748" d="M-565.412,3298.073s151.74-72.222,329.988-67.845,373.071,65.656,478.953,78.788,352.32,84.522,543.6-92.312,280.516,15.712,417.774,85.746,379.533-105.333,454.5-144.675S1990.687,2905.3,1990.687,2905.3" transform="translate(565.412 -2815.292)" fill="none" stroke="#fff" stroke-miterlimit="10" stroke-width="3"/>
      <path id="Path_749" data-name="Path 749" d="M-565.412,3270.205s151.74-72.222,329.988-67.845,373.071,65.657,478.953,78.788,352.32,84.521,543.6-92.311,280.516,15.712,417.774,85.745,379.533-105.333,454.5-144.674,331.281-252.479,331.281-252.479" transform="translate(565.412 -2805.425)" fill="none" stroke="#fff" stroke-miterlimit="10" stroke-width="3"/>
      <path id="Path_750" data-name="Path 750" d="M-565.412,3242.337s151.74-72.221,329.988-67.845,373.071,65.656,478.953,78.788,352.32,84.522,543.6-92.311,280.516,15.712,417.774,85.746,379.533-105.334,454.5-144.675,331.281-252.479,331.281-252.479" transform="translate(565.412 -2795.558)" fill="none" stroke="#fff" stroke-miterlimit="10" stroke-width="3"/>
      <path id="Path_751" data-name="Path 751" d="M-565.412,3214.469s151.74-72.222,329.988-67.845,373.071,65.656,478.953,78.788,352.32,84.522,543.6-92.312,280.516,15.712,417.774,85.746,379.533-105.333,454.5-144.675,331.281-252.479,331.281-252.479" transform="translate(565.412 -2785.69)" fill="none" stroke="#fff" stroke-miterlimit="10" stroke-width="3"/>
      <path id="Path_752" data-name="Path 752" d="M-565.412,3186.6s151.74-72.223,329.988-67.845,373.071,65.657,478.953,78.788,352.32,84.521,543.6-92.311,280.516,15.712,417.774,85.745,379.533-105.333,454.5-144.675,331.281-252.479,331.281-252.479" transform="translate(565.412 -2775.823)" fill="none" stroke="#fff" stroke-miterlimit="10" stroke-width="3"/>
      <path id="Path_753" data-name="Path 753" d="M-565.412,3158.732s151.74-72.222,329.988-67.845,373.071,65.656,478.953,78.788,352.32,84.522,543.6-92.311,280.516,15.712,417.774,85.746,379.533-105.334,454.5-144.675,331.281-252.479,331.281-252.479" transform="translate(565.412 -2765.955)" fill="none" stroke="#fff" stroke-miterlimit="10" stroke-width="3"/>
    </g>
  </g>
</svg>
