<svg xmlns="http://www.w3.org/2000/svg" xmlns:xlink="http://www.w3.org/1999/xlink" width="1707.632" height="160.028" viewBox="0 0 1707.632 160.028">
  <defs>
    <clipPath id="clip-path">
      <rect id="Rectangle_146" data-name="Rectangle 146" width="1707.632" height="160.028" transform="translate(-140.149 10344.172)" fill="none"/>
    </clipPath>
  </defs>
  <g id="Group_188" data-name="Group 188" transform="translate(140.149 -10344.172)" clip-path="url(#clip-path)">
    <g id="Group_187" data-name="Group 187">
      <path id="Path_818" data-name="Path 818" d="M1090.149,10532.809s137.335,184.792-27.1,156.565-108.493-184.321-307.076-89.837-101.327,192.007-223.827,294.927-377.783-75.466-575.5-95.47-433.914,47.742-433.914,47.742" fill="none" stroke="#e6e6e6" stroke-miterlimit="10" stroke-width="1"/>
      <path id="Path_819" data-name="Path 819" d="M1086.575,10509.229s137.335,184.794-27.1,156.565-108.493-184.321-307.076-89.837-101.326,192.007-223.827,294.927-377.783-75.466-575.5-95.469-433.913,47.742-433.913,47.742" fill="none" stroke="#e6e6e6" stroke-miterlimit="10" stroke-width="1"/>
      <path id="Path_820" data-name="Path 820" d="M1083,10485.65s137.335,184.792-27.1,156.564-108.493-184.322-307.075-89.837S647.5,10744.384,525,10847.3s-377.784-75.466-575.5-95.469-433.913,47.742-433.913,47.742" fill="none" stroke="#e6e6e6" stroke-miterlimit="10" stroke-width="1"/>
      <path id="Path_821" data-name="Path 821" d="M1079.428,10462.07s137.335,184.792-27.1,156.564-108.494-184.32-307.076-89.837-101.327,192.007-223.827,294.927-377.783-75.466-575.5-95.47S-487.984,10776-487.984,10776" fill="none" stroke="#e6e6e6" stroke-miterlimit="10" stroke-width="1"/>
      <path id="Path_822" data-name="Path 822" d="M1075.854,10438.49s137.335,184.793-27.1,156.564-108.493-184.32-307.076-89.837-101.326,192.007-223.827,294.927-377.783-75.466-575.5-95.469-433.914,47.742-433.914,47.742" fill="none" stroke="#e6e6e6" stroke-miterlimit="10" stroke-width="1"/>
      <path id="Path_823" data-name="Path 823" d="M1072.281,10414.911s137.335,184.792-27.1,156.564-108.493-184.321-307.076-89.837-101.326,192.006-223.827,294.927-377.783-75.467-575.5-95.47-433.913,47.742-433.913,47.742" fill="none" stroke="#e6e6e6" stroke-miterlimit="10" stroke-width="1"/>
      <path id="Path_824" data-name="Path 824" d="M1068.707,10391.331s137.335,184.792-27.1,156.565-108.494-184.321-307.076-89.838-101.327,192.008-223.827,294.928-377.784-75.467-575.5-95.471-433.914,47.742-433.914,47.742" fill="none" stroke="#e6e6e6" stroke-miterlimit="10" stroke-width="1"/>
      <path id="Path_825" data-name="Path 825" d="M1065.133,10367.751s137.335,184.793-27.1,156.565S929.541,10340,730.958,10434.479s-101.326,192.008-223.827,294.928-377.783-75.466-575.5-95.47-433.914,47.742-433.914,47.742" fill="none" stroke="#e6e6e6" stroke-miterlimit="10" stroke-width="1"/>
      <path id="Path_826" data-name="Path 826" d="M1061.559,10344.172s137.336,184.792-27.1,156.565-108.493-184.322-307.076-89.837-101.326,192.006-223.827,294.926-377.783-75.466-575.5-95.469-433.913,47.741-433.913,47.741" fill="none" stroke="#e6e6e6" stroke-miterlimit="10" stroke-width="1"/>
      <path id="Path_827" data-name="Path 827" d="M1057.986,10320.592s137.335,184.792-27.1,156.565-108.493-184.321-307.075-89.837-101.327,192.007-223.827,294.926-377.784-75.465-575.5-95.469-433.914,47.741-433.914,47.741" fill="none" stroke="#e6e6e6" stroke-miterlimit="10" stroke-width="1"/>
      <path id="Path_828" data-name="Path 828" d="M1054.412,10297.012s137.335,184.793-27.1,156.565-108.493-184.321-307.076-89.837-101.327,192.007-223.827,294.927-377.783-75.466-575.5-95.469S-513,10610.94-513,10610.94" fill="none" stroke="#e6e6e6" stroke-miterlimit="10" stroke-width="1"/>
      <path id="Path_829" data-name="Path 829" d="M1050.838,10273.433s137.335,184.792-27.1,156.565-108.493-184.322-307.076-89.837-101.326,192.006-223.827,294.926-377.783-75.466-575.5-95.469-433.913,47.742-433.913,47.742" fill="none" stroke="#e6e6e6" stroke-miterlimit="10" stroke-width="1"/>
      <path id="Path_830" data-name="Path 830" d="M1047.265,10249.853s137.335,184.792-27.1,156.565-108.493-184.321-307.075-89.837-101.327,192.007-223.828,294.926-377.783-75.465-575.5-95.469-433.913,47.742-433.913,47.742" fill="none" stroke="#e6e6e6" stroke-miterlimit="10" stroke-width="1"/>
      <path id="Path_831" data-name="Path 831" d="M1043.691,10226.273s137.335,184.793-27.1,156.564S908.1,10198.517,709.516,10293s-101.327,192.007-223.827,294.927-377.783-75.466-575.5-95.469-433.914,47.741-433.914,47.741" fill="none" stroke="#e6e6e6" stroke-miterlimit="10" stroke-width="1"/>
      <path id="Path_832" data-name="Path 832" d="M1040.117,10202.694s137.335,184.792-27.1,156.564-108.493-184.322-307.076-89.837-101.326,192.006-223.827,294.926-377.783-75.466-575.5-95.469-433.914,47.742-433.914,47.742" fill="none" stroke="#e6e6e6" stroke-miterlimit="10" stroke-width="1"/>
      <path id="Path_833" data-name="Path 833" d="M1036.544,10179.114s137.335,184.792-27.1,156.564-108.493-184.32-307.076-89.837-101.326,192.007-223.827,294.926-377.783-75.465-575.5-95.469-433.913,47.742-433.913,47.742" fill="none" stroke="#e6e6e6" stroke-miterlimit="10" stroke-width="1"/>
      <path id="Path_834" data-name="Path 834" d="M1032.97,10155.534s137.335,184.793-27.1,156.564-108.493-184.32-307.075-89.837-101.327,192.007-223.827,294.928-377.784-75.467-575.5-95.47-433.914,47.741-433.914,47.741" fill="none" stroke="#e6e6e6" stroke-miterlimit="10" stroke-width="1"/>
      <path id="Path_835" data-name="Path 835" d="M1029.4,10131.955s137.335,184.792-27.1,156.564S893.8,10104.2,695.221,10198.683s-101.326,192.007-223.827,294.927-377.783-75.467-575.5-95.47-433.914,47.742-433.914,47.742" fill="none" stroke="#e6e6e6" stroke-miterlimit="10" stroke-width="1"/>
      <path id="Path_836" data-name="Path 836" d="M1025.822,10108.375s137.336,184.792-27.1,156.565-108.493-184.321-307.076-89.838-101.326,192.008-223.827,294.927-377.783-75.465-575.5-95.47-433.913,47.742-433.913,47.742" fill="none" stroke="#e6e6e6" stroke-miterlimit="10" stroke-width="1"/>
      <path id="Path_837" data-name="Path 837" d="M1022.249,10084.795s137.335,184.793-27.1,156.565-108.493-184.321-307.075-89.837-101.327,192.007-223.827,294.927-377.784-75.466-575.5-95.469-433.914,47.74-433.914,47.74" fill="none" stroke="#e6e6e6" stroke-miterlimit="10" stroke-width="1"/>
      <path id="Path_838" data-name="Path 838" d="M1018.675,10061.216s137.335,184.792-27.1,156.565-108.493-184.322-307.076-89.837-101.327,192.006-223.827,294.926-377.783-75.466-575.5-95.469-433.914,47.741-433.914,47.741" fill="none" stroke="#e6e6e6" stroke-miterlimit="10" stroke-width="1"/>
      <path id="Path_839" data-name="Path 839" d="M1015.1,10037.636s137.335,184.792-27.1,156.565-108.493-184.322-307.076-89.837S579.6,10296.371,457.1,10399.29s-377.783-75.465-575.5-95.469-433.913,47.742-433.913,47.742" fill="none" stroke="#e6e6e6" stroke-miterlimit="10" stroke-width="1"/>
      <path id="Path_840" data-name="Path 840" d="M1011.528,10014.056s137.335,184.793-27.1,156.565-108.493-184.321-307.075-89.837-101.327,192.007-223.828,294.927-377.783-75.466-575.5-95.469-433.913,47.741-433.913,47.741" fill="none" stroke="#e6e6e6" stroke-miterlimit="10" stroke-width="1"/>
    </g>
  </g>
</svg>
