<svg xmlns="http://www.w3.org/2000/svg" xmlns:xlink="http://www.w3.org/1999/xlink" width="1705.086" height="78.236" viewBox="0 0 1705.086 78.236">
  <defs>
    <clipPath id="clip-path">
      <rect id="Rectangle_124" data-name="Rectangle 124" width="1705.086" height="78.236" transform="translate(-137.604 6808.131)" fill="none"/>
    </clipPath>
  </defs>
  <g id="Group_174" data-name="Group 174" transform="translate(137.604 -6808.131)" clip-path="url(#clip-path)">
    <g id="Group_173" data-name="Group 173" transform="translate(-565.412 6529.998)">
      <path id="Path_759" data-name="Path 759" d="M-565.412,6773.95s151.74-47.5,329.988-44.617,373.071,43.178,478.953,51.813,352.32,55.584,543.6-60.707,280.516,10.333,417.774,56.389,379.533-69.271,454.5-95.143,331.281-166.038,331.281-166.038" transform="translate(565.412 -6361.755)" fill="none" stroke="#fff" stroke-miterlimit="10" stroke-width="3"/>
      <path id="Path_760" data-name="Path 760" d="M-565.412,6746.081s151.74-47.5,329.988-44.616,373.071,43.178,478.953,51.813,352.32,55.584,543.6-60.707,280.516,10.333,417.774,56.389,379.533-69.271,454.5-95.143,331.281-166.038,331.281-166.038" transform="translate(565.412 -6345.725)" fill="none" stroke="#fff" stroke-miterlimit="10" stroke-width="3"/>
      <path id="Path_761" data-name="Path 761" d="M-565.412,6718.213s151.74-47.5,329.988-44.616,373.071,43.177,478.953,51.813,352.32,55.584,543.6-60.708,280.516,10.334,417.774,56.39,379.533-69.271,454.5-95.143,331.281-166.038,331.281-166.038" transform="translate(565.412 -6329.694)" fill="none" stroke="#fff" stroke-miterlimit="10" stroke-width="3"/>
      <path id="Path_762" data-name="Path 762" d="M-565.412,6690.345s151.74-47.5,329.988-44.616,373.071,43.177,478.953,51.813,352.32,55.585,543.6-60.707,280.516,10.333,417.774,56.39,379.533-69.271,454.5-95.143,331.281-166.038,331.281-166.038" transform="translate(565.412 -6313.664)" fill="none" stroke="#fff" stroke-miterlimit="10" stroke-width="3"/>
      <path id="Path_763" data-name="Path 763" d="M-565.412,6662.477s151.74-47.5,329.988-44.617,373.071,43.177,478.953,51.813,352.32,55.584,543.6-60.707,280.516,10.333,417.774,56.389,379.533-69.271,454.5-95.143,331.281-166.038,331.281-166.038" transform="translate(565.412 -6297.633)" fill="none" stroke="#fff" stroke-miterlimit="10" stroke-width="3"/>
      <path id="Path_764" data-name="Path 764" d="M-565.412,6634.608s151.74-47.5,329.988-44.617,373.071,43.178,478.953,51.813,352.32,55.584,543.6-60.706,280.516,10.332,417.774,56.389,379.533-69.271,454.5-95.143,331.281-166.038,331.281-166.038" transform="translate(565.412 -6281.603)" fill="none" stroke="#fff" stroke-miterlimit="10" stroke-width="3"/>
      <path id="Path_765" data-name="Path 765" d="M-565.412,6606.74s151.74-47.495,329.988-44.616,373.071,43.177,478.953,51.813,352.32,55.584,543.6-60.707,280.516,10.333,417.774,56.389,379.533-69.271,454.5-95.143,331.281-166.038,331.281-166.038" transform="translate(565.412 -6265.573)" fill="none" stroke="#fff" stroke-miterlimit="10" stroke-width="3"/>
      <path id="Path_766" data-name="Path 766" d="M-565.412,6578.872s151.74-47.5,329.988-44.617,373.071,43.177,478.953,51.813,352.32,55.584,543.6-60.707,280.516,10.333,417.774,56.39,379.533-69.271,454.5-95.144,331.281-166.038,331.281-166.038" transform="translate(565.412 -6249.542)" fill="none" stroke="#fff" stroke-miterlimit="10" stroke-width="3"/>
      <path id="Path_767" data-name="Path 767" d="M-565.412,6551s151.74-47.5,329.988-44.617,373.071,43.178,478.953,51.813,352.32,55.584,543.6-60.707,280.516,10.333,417.774,56.388,379.533-69.27,454.5-95.142S1990.687,6292.7,1990.687,6292.7" transform="translate(565.412 -6233.512)" fill="none" stroke="#fff" stroke-miterlimit="10" stroke-width="3"/>
      <path id="Path_768" data-name="Path 768" d="M-565.412,6523.136s151.74-47.5,329.988-44.617,373.071,43.178,478.953,51.813,352.32,55.584,543.6-60.707,280.516,10.333,417.774,56.389,379.533-69.271,454.5-95.143,331.281-166.038,331.281-166.038" transform="translate(565.412 -6217.481)" fill="none" stroke="#fff" stroke-miterlimit="10" stroke-width="3"/>
      <path id="Path_769" data-name="Path 769" d="M-565.412,6495.267s151.74-47.5,329.988-44.617,373.071,43.178,478.953,51.813,352.32,55.584,543.6-60.708,280.516,10.333,417.774,56.39,379.533-69.271,454.5-95.143,331.281-166.038,331.281-166.038" transform="translate(565.412 -6201.451)" fill="none" stroke="#fff" stroke-miterlimit="10" stroke-width="3"/>
      <path id="Path_770" data-name="Path 770" d="M-565.412,6467.4s151.74-47.5,329.988-44.617,373.071,43.178,478.953,51.813,352.32,55.584,543.6-60.707,280.516,10.333,417.774,56.389,379.533-69.271,454.5-95.144S1990.687,6209.1,1990.687,6209.1" transform="translate(565.412 -6185.421)" fill="none" stroke="#fff" stroke-miterlimit="10" stroke-width="3"/>
      <path id="Path_771" data-name="Path 771" d="M-565.412,6439.531s151.74-47.5,329.988-44.617,373.071,43.177,478.953,51.813,352.32,55.584,543.6-60.707,280.516,10.333,417.774,56.389,379.533-69.271,454.5-95.143,331.281-166.038,331.281-166.038" transform="translate(565.412 -6169.391)" fill="none" stroke="#fff" stroke-miterlimit="10" stroke-width="3"/>
      <path id="Path_772" data-name="Path 772" d="M-565.412,6411.662s151.74-47.5,329.988-44.617,373.071,43.178,478.953,51.813,352.32,55.584,543.6-60.707,280.516,10.333,417.774,56.39,379.533-69.271,454.5-95.143,331.281-166.039,331.281-166.039" transform="translate(565.412 -6153.36)" fill="none" stroke="#fff" stroke-miterlimit="10" stroke-width="3"/>
    </g>
  </g>
</svg>
