<svg xmlns="http://www.w3.org/2000/svg" width="1242.58" height="859.846" viewBox="0 0 1242.58 859.846">
  <g id="Group_193" data-name="Group 193" transform="translate(-469.024 -11755.963)">
    <path id="Path_887" data-name="Path 887" d="M469.419,12358.412s115.475-149.083,398.393-162.636,626.823-28.8,675.953-189.741S1677.6,11748.529,1711.482,11757" fill="none" stroke="#666" stroke-miterlimit="10" stroke-width="1"/>
    <path id="Path_888" data-name="Path 888" d="M469.419,12376.775s115.475-149.082,398.393-162.636,626.823-28.8,675.953-189.74,133.835-257.507,167.717-249.035" fill="none" stroke="#666" stroke-miterlimit="10" stroke-width="1"/>
    <path id="Path_889" data-name="Path 889" d="M469.419,12395.139s115.475-149.082,398.393-162.635,626.823-28.8,675.953-189.741,133.835-257.506,167.717-249.036" fill="none" stroke="#666" stroke-miterlimit="10" stroke-width="1"/>
    <path id="Path_890" data-name="Path 890" d="M469.419,12413.5s115.475-149.083,398.393-162.636,626.823-28.8,675.953-189.741,133.835-257.506,167.717-249.035" fill="none" stroke="#666" stroke-miterlimit="10" stroke-width="1"/>
    <path id="Path_891" data-name="Path 891" d="M469.419,12431.866s115.475-149.082,398.393-162.635,626.823-28.8,675.953-189.741,133.835-257.506,167.717-249.036" fill="none" stroke="#666" stroke-miterlimit="10" stroke-width="1"/>
    <path id="Path_892" data-name="Path 892" d="M469.419,12450.23s115.475-149.083,398.393-162.636,626.823-28.8,675.953-189.742,133.835-257.506,167.717-249.034" fill="none" stroke="#666" stroke-miterlimit="10" stroke-width="1"/>
    <path id="Path_893" data-name="Path 893" d="M469.419,12468.593s115.475-149.082,398.393-162.635,626.823-28.8,675.953-189.741,133.835-257.506,167.717-249.035" fill="none" stroke="#666" stroke-miterlimit="10" stroke-width="1"/>
    <path id="Path_894" data-name="Path 894" d="M469.419,12486.957s115.475-149.082,398.393-162.635,626.823-28.8,675.953-189.741,133.835-257.506,167.717-249.036" fill="none" stroke="#666" stroke-miterlimit="10" stroke-width="1"/>
    <path id="Path_895" data-name="Path 895" d="M469.419,12505.321s115.475-149.083,398.393-162.637,626.823-28.8,675.953-189.74,133.835-257.506,167.717-249.035" fill="none" stroke="#666" stroke-miterlimit="10" stroke-width="1"/>
    <path id="Path_896" data-name="Path 896" d="M469.419,12523.684s115.475-149.082,398.393-162.635,626.823-28.8,675.953-189.741,133.835-257.506,167.717-249.035" fill="none" stroke="#666" stroke-miterlimit="10" stroke-width="1"/>
    <path id="Path_897" data-name="Path 897" d="M469.419,12542.048s115.475-149.082,398.393-162.635,626.823-28.8,675.953-189.742,133.835-257.5,167.717-249.035" fill="none" stroke="#666" stroke-miterlimit="10" stroke-width="1"/>
    <path id="Path_898" data-name="Path 898" d="M469.419,12560.411s115.475-149.082,398.393-162.635,626.823-28.8,675.953-189.741S1677.6,11950.529,1711.482,11959" fill="none" stroke="#666" stroke-miterlimit="10" stroke-width="1"/>
    <path id="Path_899" data-name="Path 899" d="M469.419,12578.775s115.475-149.082,398.393-162.636,626.823-28.8,675.953-189.74,133.835-257.507,167.717-249.036" fill="none" stroke="#666" stroke-miterlimit="10" stroke-width="1"/>
    <path id="Path_900" data-name="Path 900" d="M469.419,12597.139s115.475-149.083,398.393-162.636,626.823-28.8,675.953-189.741,133.835-257.506,167.717-249.035" fill="none" stroke="#666" stroke-miterlimit="10" stroke-width="1"/>
    <path id="Path_901" data-name="Path 901" d="M469.419,12615.5s115.475-149.082,398.393-162.635,626.823-28.8,675.953-189.741,133.835-257.506,167.717-249.035" fill="none" stroke="#666" stroke-miterlimit="10" stroke-width="1"/>
  </g>
</svg>
