<svg xmlns="http://www.w3.org/2000/svg" width="120.922" height="129.657" viewBox="0 0 120.922 129.657">
  <g id="Group_266" data-name="Group 266" transform="translate(-81.841 -11607.042)">
    <g id="IMEDF_LDER" data-name="IMEDF LDER" style="isolation: isolate">
      <g id="Group_263" data-name="Group 263" style="isolation: isolate">
        <path id="Path_3228" data-name="Path 3228" d="M81.841,11702.437a1.259,1.259,0,0,1,.347-.907,1.307,1.307,0,0,1,.991-.361,1.323,1.323,0,0,1,1,.361,1.25,1.25,0,0,1,.352.907,1.226,1.226,0,0,1-.352.895,1.336,1.336,0,0,1-1,.355,1.319,1.319,0,0,1-.991-.355A1.234,1.234,0,0,1,81.841,11702.437Zm2.52,13.312H81.988v-10.567h2.373Z" fill="#00fff8"/>
        <path id="Path_3229" data-name="Path 3229" d="M91.936,11701.529l4.1,10.9,4.092-10.9h3.193v14.219h-2.461v-4.688l.244-6.269-4.2,10.957H95.139L90.95,11704.8l.244,6.26v4.688H88.733v-14.219Z" fill="#00fff8"/>
        <path id="Path_3230" data-name="Path 3230" d="M112.227,11715.943a4.912,4.912,0,0,1-3.657-1.421,5.152,5.152,0,0,1-1.4-3.784v-.293a6.336,6.336,0,0,1,.611-2.827,4.643,4.643,0,0,1,1.713-1.939,4.536,4.536,0,0,1,2.461-.692,4.146,4.146,0,0,1,3.335,1.377,5.819,5.819,0,0,1,1.177,3.9v.957h-6.9a3.179,3.179,0,0,0,.874,2.071,2.627,2.627,0,0,0,1.929.761,3.213,3.213,0,0,0,2.656-1.317l1.279,1.221a4.263,4.263,0,0,1-1.694,1.469A5.3,5.3,0,0,1,112.227,11715.943Zm-.283-9.054a2,2,0,0,0-1.578.685,3.551,3.551,0,0,0-.766,1.9h4.521v-.176a2.883,2.883,0,0,0-.634-1.8A1.981,1.981,0,0,0,111.944,11706.89Z" fill="#00fff8"/>
        <path id="Path_3231" data-name="Path 3231" d="M119.422,11710.386a6.284,6.284,0,0,1,1.132-3.921,3.631,3.631,0,0,1,3.038-1.479,3.448,3.448,0,0,1,2.714,1.172v-5.41h2.373v15h-2.148l-.117-1.094a3.5,3.5,0,0,1-2.842,1.289,3.609,3.609,0,0,1-3-1.494A6.515,6.515,0,0,1,119.422,11710.386Zm2.373.205a4.4,4.4,0,0,0,.62,2.516,2.01,2.01,0,0,0,1.762.9,2.238,2.238,0,0,0,2.129-1.3v-4.511a2.205,2.205,0,0,0-2.109-1.271,2.029,2.029,0,0,0-1.777.913A4.9,4.9,0,0,0,121.795,11710.591Z" fill="#00fff8"/>
        <path id="Path_3232" data-name="Path 3232" d="M141.138,11709.722h-5.723v6.026h-2.47v-14.219h9.033v1.992h-6.563v4.229h5.723Z" fill="#00fff8"/>
        <path id="Path_3233" data-name="Path 3233" d="M167.407,11715.748h-2.373v-15h2.373Z" fill="#00fff8"/>
        <path id="Path_3234" data-name="Path 3234" d="M171.106,11710.386a6.278,6.278,0,0,1,1.133-3.921,3.628,3.628,0,0,1,3.037-1.479,3.447,3.447,0,0,1,2.714,1.172v-5.41h2.374v15h-2.149l-.117-1.094a3.5,3.5,0,0,1-2.842,1.289,3.609,3.609,0,0,1-3-1.494A6.515,6.515,0,0,1,171.106,11710.386Zm2.373.205a4.4,4.4,0,0,0,.62,2.516,2.01,2.01,0,0,0,1.763.9,2.238,2.238,0,0,0,2.128-1.3v-4.511a2.205,2.205,0,0,0-2.109-1.271,2.029,2.029,0,0,0-1.777.913A4.9,4.9,0,0,0,173.479,11710.591Z" fill="#00fff8"/>
        <path id="Path_3235" data-name="Path 3235" d="M189.052,11715.943a4.914,4.914,0,0,1-3.657-1.421,5.156,5.156,0,0,1-1.4-3.784v-.293a6.336,6.336,0,0,1,.61-2.827,4.645,4.645,0,0,1,1.714-1.939,4.534,4.534,0,0,1,2.461-.692,4.148,4.148,0,0,1,3.335,1.377,5.819,5.819,0,0,1,1.177,3.9v.957h-6.9a3.179,3.179,0,0,0,.874,2.071,2.629,2.629,0,0,0,1.929.761,3.21,3.21,0,0,0,2.656-1.317l1.28,1.221a4.266,4.266,0,0,1-1.7,1.469A5.3,5.3,0,0,1,189.052,11715.943Zm-.283-9.054a2,2,0,0,0-1.577.685,3.543,3.543,0,0,0-.766,1.9h4.521v-.176a2.883,2.883,0,0,0-.635-1.8A1.979,1.979,0,0,0,188.769,11706.89Z" fill="#00fff8"/>
        <path id="Path_3236" data-name="Path 3236" d="M202.224,11707.349a5.916,5.916,0,0,0-.967-.077,2.177,2.177,0,0,0-2.2,1.25v7.227h-2.373v-10.567h2.265l.059,1.183a2.674,2.674,0,0,1,2.383-1.377,2.233,2.233,0,0,1,.84.137Z" fill="#00fff8"/>
      </g>
    </g>
    <g id="Subtract">
      <path id="Path_3237" data-name="Path 3237" d="M156.813,11652.826H131.245a20.3,20.3,0,0,0,.83,4.169c-.83,0,.542,3.7,1.553,4.707a4.167,4.167,0,0,0,2.535.823,6.866,6.866,0,0,1,1.808.361,10.9,10.9,0,0,0,4.168.828h3.9c2.875,0,6.7,0,8.715-2.013C156.8,11659.66,156.813,11655.714,156.813,11652.826Zm-10.011,5.745a2.767,2.767,0,1,1-2.767-2.768A2.766,2.766,0,0,1,146.8,11658.571Z" fill="#00fff8" fill-rule="evenodd"/>
    </g>
    <g id="Vector">
      <path id="Path_3238" data-name="Path 3238" d="M130.058,11682.113c-7.609,0-14.986-5.172-16.27-11.7-2.292-11.657,3.342-20.431,17.227-26.822l.836,1.817c-17.213,7.924-17.433,17.845-16.1,24.619,1.188,6.036,8.528,10.721,15.71,10.021,3.48-.339,11.575-2.609,11.575-16.331h2c0,10.656-5,17.5-13.381,18.321C131.122,11682.088,130.589,11682.113,130.058,11682.113Z" fill="#00fff8"/>
    </g>
    <g id="Vector_2" data-name="Vector 2">
      <path id="Path_3239" data-name="Path 3239" d="M152.036,11702.9c-1.675-2.453-2.608-7.661-.7-13.3,1.746-5.156,6.311-12.125,18.147-16.031a14.9,14.9,0,0,0,9.422-9.4c1.713-4.766,1.369-10.345-.856-13.881-4.635-8.645-16.493-11.08-21.015-10.429l-.285-1.979c5.153-.743,17.9,1.84,23.027,11.4,2.541,4.032,2.951,10.165,1.011,15.562a16.866,16.866,0,0,1-10.677,10.618c-11.053,3.649-15.28,10.048-16.879,14.774-1.614,4.767-.992,9.409.457,11.53Z" fill="#00fff8"/>
    </g>
    <g id="Vector_3" data-name="Vector 3">
      <path id="Path_3240" data-name="Path 3240" d="M149.441,11664.715H138.618a8.374,8.374,0,0,1-8.373-8.373v-37.783a8.372,8.372,0,0,1,8.373-8.373v2a6.375,6.375,0,0,0-6.373,6.373v37.783a6.375,6.375,0,0,0,6.373,6.373h10.823a6.373,6.373,0,0,0,6.372-6.373v-37.783a6.373,6.373,0,0,0-6.362-6.373l0-2a8.372,8.372,0,0,1,8.359,8.373v37.783a8.374,8.374,0,0,1-8.372,8.373Z" fill="#00fff8"/>
    </g>
    <g id="Vector_4" data-name="Vector 4">
      <rect id="Rectangle_188" data-name="Rectangle 188" width="2" height="7.536" transform="translate(148.822 11607.042)" fill="#00fff8"/>
    </g>
    <g id="Vector_5" data-name="Vector 5">
      <rect id="Rectangle_189" data-name="Rectangle 189" width="2" height="7.536" transform="translate(137.471 11607.042)" fill="#00fff8"/>
    </g>
    <g id="Vector_6" data-name="Vector 6">
      <rect id="Rectangle_190" data-name="Rectangle 190" width="15.403" height="1.041" transform="translate(135.868 11633.572)" fill="#00fff8"/>
    </g>
    <g id="Vector_7" data-name="Vector 7">
      <rect id="Rectangle_191" data-name="Rectangle 191" width="15.403" height="1.041" transform="translate(135.868 11637.243)" fill="#00fff8"/>
    </g>
    <g id="Vector_10" data-name="Vector 10">
      <g id="Group_264" data-name="Group 264">
        <path id="Path_3241" data-name="Path 3241" d="M143.97,11628.591h-8.1v-8.1h8.1Zm-7.1-1h6.1v-6.1h-6.1Z" fill="#00fff8"/>
      </g>
    </g>
    <g id="Vector_11" data-name="Vector 11">
      <rect id="Rectangle_192" data-name="Rectangle 192" width="10.801" height="1.064" transform="translate(135.868 11640.902)" fill="#00fff8"/>
    </g>
    <g id="Group_265" data-name="Group 265">
      <path id="Path_3242" data-name="Path 3242" d="M84.183,11724.244v3.924h4.591v-3.924h1.24v9.379h-1.24v-4.4H84.183v4.4H82.958v-9.379Z" fill="#00fff8"/>
      <path id="Path_3243" data-name="Path 3243" d="M92.789,11730.478a2.172,2.172,0,0,0,2.338,2.339,4.52,4.52,0,0,0,1.887-.349l.211.877a5.569,5.569,0,0,1-2.267.417,3.144,3.144,0,0,1-3.352-3.395c0-2.032,1.211-3.632,3.2-3.632,2.225,0,2.817,1.934,2.817,3.173a4.572,4.572,0,0,1-.042.569Zm3.634-.876a1.749,1.749,0,0,0-1.719-1.989,2.04,2.04,0,0,0-1.9,1.989Z" fill="#00fff8"/>
      <path id="Path_3244" data-name="Path 3244" d="M102.93,11733.623l-.1-.849h-.043a2.549,2.549,0,0,1-2.084,1,1.931,1.931,0,0,1-2.085-1.935c0-1.628,1.465-2.519,4.1-2.5v-.139a1.4,1.4,0,0,0-1.55-1.56,3.432,3.432,0,0,0-1.774.5l-.282-.807a4.269,4.269,0,0,1,2.24-.6c2.084,0,2.591,1.4,2.591,2.755v2.519a9.316,9.316,0,0,0,.113,1.614Zm-.183-3.437c-1.352-.027-2.887.209-2.887,1.518a1.091,1.091,0,0,0,1.169,1.169,1.7,1.7,0,0,0,1.648-1.127,1.276,1.276,0,0,0,.07-.39Z" fill="#00fff8"/>
      <path id="Path_3245" data-name="Path 3245" d="M105.944,11723.743h1.24v9.88h-1.24Z" fill="#00fff8"/>
      <path id="Path_3246" data-name="Path 3246" d="M110.761,11724.954v1.934h1.775v.933h-1.775v3.632c0,.835.24,1.309.93,1.309a2.771,2.771,0,0,0,.718-.084l.056.919a3.059,3.059,0,0,1-1.1.166,1.727,1.727,0,0,1-1.338-.514,2.477,2.477,0,0,1-.479-1.754v-3.674h-1.056v-.933h1.056v-1.613Z" fill="#00fff8"/>
      <path id="Path_3247" data-name="Path 3247" d="M113.93,11723.743h1.24v4.2h.028a2.284,2.284,0,0,1,.887-.863,2.572,2.572,0,0,1,1.268-.348c.915,0,2.38.557,2.38,2.881v4.007h-1.239v-3.868c0-1.086-.409-2-1.578-2a1.779,1.779,0,0,0-1.662,1.224,1.478,1.478,0,0,0-.084.585v4.063h-1.24Z" fill="#00fff8"/>
      <path id="Path_3248" data-name="Path 3248" d="M126.114,11725a.768.768,0,0,1-1.535,0,.75.75,0,0,1,.774-.765A.731.731,0,0,1,126.114,11725Zm-1.381,8.628v-6.735h1.24v6.735Z" fill="#00fff8"/>
      <path id="Path_3249" data-name="Path 3249" d="M128.029,11728.711c0-.7-.014-1.266-.056-1.823h1.1l.07,1.113h.028a2.513,2.513,0,0,1,2.254-1.266c.943,0,2.408.557,2.408,2.866v4.021h-1.239v-3.882c0-1.086-.409-1.99-1.578-1.99a1.8,1.8,0,0,0-1.746,1.823v4.049h-1.24Z" fill="#00fff8"/>
      <path id="Path_3250" data-name="Path 3250" d="M139.283,11726.888l1.493,3.98c.155.445.324.974.436,1.378h.029c.126-.4.267-.919.436-1.406l1.352-3.952h1.31l-1.859,4.8c-.887,2.31-1.493,3.492-2.338,4.217a3.394,3.394,0,0,1-1.521.793l-.31-1.03a3.281,3.281,0,0,0,1.085-.6,3.737,3.737,0,0,0,1.042-1.364.874.874,0,0,0,.1-.292,1.06,1.06,0,0,0-.084-.32l-2.521-6.207Z" fill="#00fff8"/>
      <path id="Path_3251" data-name="Path 3251" d="M151.494,11730.2a3.31,3.31,0,0,1-3.394,3.576,3.219,3.219,0,0,1-3.267-3.466,3.306,3.306,0,0,1,3.38-3.575A3.206,3.206,0,0,1,151.494,11730.2Zm-5.408.069c0,1.476.859,2.589,2.07,2.589,1.183,0,2.071-1.1,2.071-2.616,0-1.142-.578-2.589-2.042-2.589S146.086,11728.989,146.086,11730.27Z" fill="#00fff8"/>
      <path id="Path_3252" data-name="Path 3252" d="M158.762,11731.786c0,.7.014,1.309.056,1.837h-1.1l-.071-1.1h-.028a2.568,2.568,0,0,1-2.253,1.252c-1.07,0-2.352-.584-2.352-2.95v-3.938h1.239v3.729c0,1.281.395,2.144,1.521,2.144a1.728,1.728,0,0,0,1.747-1.739v-4.134h1.239Z" fill="#00fff8"/>
      <path id="Path_3253" data-name="Path 3253" d="M160.819,11728.989c0-.793-.014-1.476-.057-2.1h1.085l.042,1.322h.057a2.038,2.038,0,0,1,1.887-1.475,1.335,1.335,0,0,1,.352.042v1.154a1.917,1.917,0,0,0-.423-.042,1.729,1.729,0,0,0-1.661,1.572,3.325,3.325,0,0,0-.057.571v3.59h-1.225Z" fill="#00fff8"/>
      <path id="Path_3254" data-name="Path 3254" d="M168.41,11723.743h1.24v4.2h.028a2.284,2.284,0,0,1,.887-.863,2.572,2.572,0,0,1,1.268-.348c.915,0,2.38.557,2.38,2.881v4.007h-1.239v-3.868c0-1.086-.409-2-1.578-2a1.778,1.778,0,0,0-1.662,1.224,1.478,1.478,0,0,0-.084.585v4.063h-1.24Z" fill="#00fff8"/>
      <path id="Path_3255" data-name="Path 3255" d="M180,11733.623l-.1-.849h-.043a2.549,2.549,0,0,1-2.084,1,1.931,1.931,0,0,1-2.085-1.935c0-1.628,1.465-2.519,4.1-2.5v-.139a1.4,1.4,0,0,0-1.549-1.56,3.433,3.433,0,0,0-1.775.5l-.282-.807a4.266,4.266,0,0,1,2.24-.6c2.084,0,2.591,1.4,2.591,2.755v2.519a9.316,9.316,0,0,0,.113,1.614Zm-.183-3.437c-1.352-.027-2.887.209-2.887,1.518a1.091,1.091,0,0,0,1.169,1.169,1.7,1.7,0,0,0,1.648-1.127,1.276,1.276,0,0,0,.07-.39Z" fill="#00fff8"/>
      <path id="Path_3256" data-name="Path 3256" d="M183.017,11728.711c0-.7-.015-1.266-.057-1.823h1.1l.07,1.113h.028a2.513,2.513,0,0,1,2.254-1.266c.943,0,2.408.557,2.408,2.866v4.021H187.58v-3.882c0-1.086-.409-1.99-1.578-1.99a1.757,1.757,0,0,0-1.661,1.252,1.728,1.728,0,0,0-.085.571v4.049h-1.239Z" fill="#00fff8"/>
      <path id="Path_3257" data-name="Path 3257" d="M196.721,11723.743v8.141c0,.6.014,1.28.056,1.739h-1.112l-.057-1.169h-.028a2.525,2.525,0,0,1-2.324,1.322c-1.648,0-2.915-1.377-2.915-3.424-.014-2.239,1.394-3.617,3.056-3.617a2.284,2.284,0,0,1,2.056,1.029h.028v-4.021Zm-1.24,5.886a2.134,2.134,0,0,0-.056-.514,1.817,1.817,0,0,0-1.789-1.42c-1.281,0-2.042,1.112-2.042,2.6,0,1.364.676,2.491,2.014,2.491a1.857,1.857,0,0,0,1.817-1.461,2.117,2.117,0,0,0,.056-.529Z" fill="#00fff8"/>
      <path id="Path_3258" data-name="Path 3258" d="M198.609,11732.371a3.277,3.277,0,0,0,1.633.487c.9,0,1.324-.445,1.324-1,0-.584-.352-.905-1.267-1.239-1.226-.432-1.8-1.1-1.8-1.906a2.093,2.093,0,0,1,2.352-1.976,3.434,3.434,0,0,1,1.676.417l-.31.891a2.672,2.672,0,0,0-1.394-.39c-.733,0-1.141.418-1.141.919,0,.556.408.807,1.3,1.141,1.183.445,1.788,1.03,1.788,2.032,0,1.183-.929,2.017-2.549,2.017a3.914,3.914,0,0,1-1.915-.459Z" fill="#00fff8"/>
    </g>
    <path id="Path_3259" data-name="Path 3259" d="M152.862,11701.336a7,7,0,1,0,7,7A7.007,7.007,0,0,0,152.862,11701.336Zm0,12a5,5,0,1,1,5-5A5.006,5.006,0,0,1,152.862,11713.336Z" fill="#00fff8"/>
  </g>
</svg>
