<svg xmlns="http://www.w3.org/2000/svg" width="33.658" height="33.658" viewBox="0 0 33.658 33.658">
  <g id="Group_273" data-name="Group 273" transform="translate(-83.513 -12049.796)">
    <g id="Group_268" data-name="Group 268">
      <g id="Group_267" data-name="Group 267">
        <path id="Path_3260" data-name="Path 3260" d="M106.653,12049.8H94.031a10.519,10.519,0,0,0-10.518,10.519v12.621a10.519,10.519,0,0,0,10.518,10.519h12.622a10.519,10.519,0,0,0,10.518-10.519v-12.621A10.519,10.519,0,0,0,106.653,12049.8Zm7.363,23.14a7.371,7.371,0,0,1-7.363,7.363H94.031a7.371,7.371,0,0,1-7.363-7.363v-12.621a7.37,7.37,0,0,1,7.363-7.362h12.622a7.37,7.37,0,0,1,7.363,7.362Z" fill="#00fff8"/>
      </g>
    </g>
    <g id="Group_270" data-name="Group 270">
      <g id="Group_269" data-name="Group 269">
        <path id="Path_3261" data-name="Path 3261" d="M100.342,12058.211a8.415,8.415,0,1,0,8.415,8.414A8.415,8.415,0,0,0,100.342,12058.211Zm0,13.673a5.259,5.259,0,1,1,5.259-5.259A5.266,5.266,0,0,1,100.342,12071.884Z" fill="#00fff8"/>
      </g>
    </g>
    <g id="Group_272" data-name="Group 272">
      <g id="Group_271" data-name="Group 271">
        <circle id="Ellipse_49" data-name="Ellipse 49" cx="1.121" cy="1.121" r="1.121" transform="translate(108.266 12056.458)" fill="#00fff8"/>
      </g>
    </g>
  </g>
</svg>
