<svg xmlns="http://www.w3.org/2000/svg" width="33.021" height="45.03" viewBox="0 0 33.021 45.03">
  <g id="Group_297" data-name="Group 297" transform="translate(-1321.379 -3754.256)">
    <g id="Group_280" data-name="Group 280">
      <g id="Group_279" data-name="Group 279">
        <path id="Path_3270" data-name="Path 3270" d="M1354.393,3762.512a.748.748,0,0,0-.213-.531l-7.505-7.5a.739.739,0,0,0-.53-.213v-.007H1323.63a2.251,2.251,0,0,0-2.251,2.252v40.526a2.251,2.251,0,0,0,2.251,2.252h28.519a2.251,2.251,0,0,0,2.251-2.252v-34.522Zm-7.5-5.694,4.943,4.943h-4.192a.75.75,0,0,1-.751-.75Zm6,40.216a.75.75,0,0,1-.75.751H1323.63a.75.75,0,0,1-.75-.751v-40.526a.75.75,0,0,1,.75-.751h21.764v5.254a2.251,2.251,0,0,0,2.252,2.251h5.253Z" fill="#00fff8"/>
      </g>
    </g>
    <g id="Group_282" data-name="Group 282">
      <g id="Group_281" data-name="Group 281">
        <path id="Path_3271" data-name="Path 3271" d="M1328.883,3774.52a2.251,2.251,0,1,0,2.252,2.251A2.251,2.251,0,0,0,1328.883,3774.52Zm0,3a.75.75,0,1,1,.751-.75A.75.75,0,0,1,1328.883,3777.521Z" fill="#00fff8"/>
      </g>
    </g>
    <g id="Group_284" data-name="Group 284">
      <g id="Group_283" data-name="Group 283">
        <rect id="Rectangle_195" data-name="Rectangle 195" width="15.01" height="1.501" transform="translate(1334.137 3776.021)" fill="#00fff8"/>
      </g>
    </g>
    <g id="Group_286" data-name="Group 286">
      <g id="Group_285" data-name="Group 285">
        <path id="Path_3272" data-name="Path 3272" d="M1328.883,3767.015a2.252,2.252,0,1,0,2.252,2.251A2.251,2.251,0,0,0,1328.883,3767.015Zm0,3a.75.75,0,1,1,.751-.751A.751.751,0,0,1,1328.883,3770.017Z" fill="#00fff8"/>
      </g>
    </g>
    <g id="Group_288" data-name="Group 288">
      <g id="Group_287" data-name="Group 287">
        <rect id="Rectangle_196" data-name="Rectangle 196" width="15.01" height="1.501" transform="translate(1334.137 3768.516)" fill="#00fff8"/>
      </g>
    </g>
    <g id="Group_290" data-name="Group 290">
      <g id="Group_289" data-name="Group 289">
        <path id="Path_3273" data-name="Path 3273" d="M1328.883,3782.024a2.252,2.252,0,1,0,2.252,2.252A2.252,2.252,0,0,0,1328.883,3782.024Zm0,3a.75.75,0,1,1,.751-.75A.75.75,0,0,1,1328.883,3785.026Z" fill="#00fff8"/>
      </g>
    </g>
    <g id="Group_292" data-name="Group 292">
      <g id="Group_291" data-name="Group 291">
        <rect id="Rectangle_197" data-name="Rectangle 197" width="15.01" height="1.501" transform="translate(1334.137 3783.525)" fill="#00fff8"/>
      </g>
    </g>
    <g id="Group_294" data-name="Group 294">
      <g id="Group_293" data-name="Group 293">
        <path id="Path_3274" data-name="Path 3274" d="M1328.883,3789.529a2.251,2.251,0,1,0,2.252,2.252A2.252,2.252,0,0,0,1328.883,3789.529Zm0,3a.75.75,0,1,1,.751-.75A.75.75,0,0,1,1328.883,3792.531Z" fill="#00fff8"/>
      </g>
    </g>
    <g id="Group_296" data-name="Group 296">
      <g id="Group_295" data-name="Group 295">
        <rect id="Rectangle_198" data-name="Rectangle 198" width="15.01" height="1.501" transform="translate(1334.137 3791.03)" fill="#00fff8"/>
      </g>
    </g>
  </g>
</svg>
