<svg xmlns="http://www.w3.org/2000/svg" width="37.629" height="33.658" viewBox="0 0 37.629 33.658">
  <g id="Group_274" data-name="Group 274" transform="translate(-147.103 -12049.796)">
    <path id="Path_3262" data-name="Path 3262" d="M177.4,12083.454a1.487,1.487,0,0,1-.836-.257l-9.462-6.417-5.074,3.65a1.49,1.49,0,0,1-2.311-.829l-2.548-9.655-9.1-3.481a1.49,1.49,0,0,1-.019-2.775l34.618-13.775a1.493,1.493,0,0,1,.491-.115,1.384,1.384,0,0,1,.18,0,1.489,1.489,0,0,1,.955.423c.027.027.053.055.078.083a1.484,1.484,0,0,1,.365.872,1.581,1.581,0,0,1,0,.238,1.408,1.408,0,0,1-.025.169l-5.843,30.66a1.491,1.491,0,0,1-1.463,1.21Zm-9.467-9.711,8.428,5.717,4.547-23.856-16.422,15.8,3.407,2.312C167.9,12073.725,167.915,12073.734,167.928,12073.743Zm-7.016-1.271,1.129,4.276,2.431-1.75-3.184-2.159A1.476,1.476,0,0,1,160.912,12072.472Zm-8.222-7.427,6.252,2.39a1.493,1.493,0,0,1,.908,1.013l.793,3a1.491,1.491,0,0,1,.448-.918l15.648-15.057Z" fill="#00fff8"/>
  </g>
</svg>
