<svg xmlns="http://www.w3.org/2000/svg" width="120.922" height="129.656" viewBox="0 0 120.922 129.656">
  <g id="Logo" transform="translate(-126.736 -100.097)">
    <g id="Group_262" data-name="Group 262">
      <g id="IMEDF_LDER" data-name="IMEDF LDER" style="isolation: isolate">
        <g id="Group_259" data-name="Group 259" style="isolation: isolate">
          <path id="Path_3196" data-name="Path 3196" d="M126.736,195.492a1.263,1.263,0,0,1,.347-.909,1.306,1.306,0,0,1,.991-.361,1.327,1.327,0,0,1,1,.361,1.254,1.254,0,0,1,.351.909,1.22,1.22,0,0,1-.351.893,1.341,1.341,0,0,1-1,.357,1.32,1.32,0,0,1-.991-.357A1.229,1.229,0,0,1,126.736,195.492Zm2.519,13.31h-2.373V198.236h2.373Z" fill="#4d4d4d"/>
          <path id="Path_3197" data-name="Path 3197" d="M136.831,194.583l4.1,10.9,4.091-10.9h3.194V208.8h-2.461v-4.687l.244-6.27L141.8,208.8h-1.768l-4.189-10.947.244,6.26V208.8h-2.461V194.583Z" fill="#4d4d4d"/>
          <path id="Path_3198" data-name="Path 3198" d="M157.122,209a4.911,4.911,0,0,1-3.658-1.42,5.158,5.158,0,0,1-1.4-3.785V203.5a6.354,6.354,0,0,1,.61-2.827,4.642,4.642,0,0,1,1.714-1.938,4.535,4.535,0,0,1,2.461-.694,4.148,4.148,0,0,1,3.335,1.377,5.821,5.821,0,0,1,1.177,3.9v.957h-6.9a3.166,3.166,0,0,0,.874,2.07,2.621,2.621,0,0,0,1.928.762,3.216,3.216,0,0,0,2.657-1.318l1.279,1.22a4.282,4.282,0,0,1-1.694,1.47A5.3,5.3,0,0,1,157.122,209Zm-.284-9.052a2,2,0,0,0-1.577.683,3.543,3.543,0,0,0-.766,1.9h4.521v-.176a2.886,2.886,0,0,0-.635-1.8A1.982,1.982,0,0,0,156.838,199.945Z" fill="#4d4d4d"/>
          <path id="Path_3199" data-name="Path 3199" d="M164.316,203.441a6.282,6.282,0,0,1,1.133-3.921,3.632,3.632,0,0,1,3.037-1.48,3.45,3.45,0,0,1,2.715,1.172V193.8h2.373v15h-2.148l-.117-1.094A3.5,3.5,0,0,1,168.467,209a3.61,3.61,0,0,1-3-1.494A6.511,6.511,0,0,1,164.316,203.441Zm2.373.205a4.4,4.4,0,0,0,.621,2.515,2.012,2.012,0,0,0,1.762.9,2.241,2.241,0,0,0,2.129-1.3v-4.512a2.206,2.206,0,0,0-2.109-1.269,2.028,2.028,0,0,0-1.778.913A4.9,4.9,0,0,0,166.689,203.646Z" fill="#4d4d4d"/>
          <path id="Path_3200" data-name="Path 3200" d="M186.033,202.777H180.31V208.8h-2.471V194.583h9.034v1.993H180.31V200.8h5.723Z" fill="#4d4d4d"/>
          <path id="Path_3201" data-name="Path 3201" d="M212.3,208.8h-2.373v-15H212.3Z" fill="#4d4d4d"/>
          <path id="Path_3202" data-name="Path 3202" d="M216,203.441a6.282,6.282,0,0,1,1.133-3.921,3.632,3.632,0,0,1,3.037-1.48,3.45,3.45,0,0,1,2.715,1.172V193.8h2.373v15H223.11l-.117-1.094A3.5,3.5,0,0,1,220.151,209a3.61,3.61,0,0,1-3-1.494A6.511,6.511,0,0,1,216,203.441Zm2.374.205a4.4,4.4,0,0,0,.62,2.515,2.011,2.011,0,0,0,1.762.9,2.24,2.24,0,0,0,2.129-1.3v-4.512a2.206,2.206,0,0,0-2.109-1.269A2.025,2.025,0,0,0,219,200.9,4.894,4.894,0,0,0,218.374,203.646Z" fill="#4d4d4d"/>
          <path id="Path_3203" data-name="Path 3203" d="M233.947,209a4.909,4.909,0,0,1-3.657-1.42,5.158,5.158,0,0,1-1.4-3.785V203.5a6.34,6.34,0,0,1,.61-2.827,4.642,4.642,0,0,1,1.714-1.938,4.535,4.535,0,0,1,2.461-.694,4.148,4.148,0,0,1,3.335,1.377,5.826,5.826,0,0,1,1.177,3.9v.957h-6.9a3.176,3.176,0,0,0,.874,2.07,2.624,2.624,0,0,0,1.929.762,3.214,3.214,0,0,0,2.656-1.318l1.28,1.22a4.278,4.278,0,0,1-1.7,1.47A5.294,5.294,0,0,1,233.947,209Zm-.283-9.052a2,2,0,0,0-1.577.683,3.551,3.551,0,0,0-.767,1.9h4.522v-.176a2.886,2.886,0,0,0-.635-1.8A1.982,1.982,0,0,0,233.664,199.945Z" fill="#4d4d4d"/>
          <path id="Path_3204" data-name="Path 3204" d="M247.119,200.4a5.889,5.889,0,0,0-.967-.078,2.176,2.176,0,0,0-2.2,1.25V208.8h-2.373V198.236h2.265l.059,1.181a2.674,2.674,0,0,1,2.383-1.377,2.22,2.22,0,0,1,.839.137Z" fill="#4d4d4d"/>
        </g>
      </g>
      <g id="Subtract">
        <path id="Path_3205" data-name="Path 3205" d="M201.708,145.881H176.14a20.317,20.317,0,0,0,.829,4.168c-.829,0,.542,3.7,1.554,4.707a4.155,4.155,0,0,0,2.535.824,6.83,6.83,0,0,1,1.807.362,10.885,10.885,0,0,0,4.169.827h3.9c2.875,0,6.7,0,8.715-2.013C201.7,152.714,201.708,148.769,201.708,145.881ZM191.7,151.625a2.767,2.767,0,1,1-2.767-2.767A2.767,2.767,0,0,1,191.7,151.625Z" fill="#4d4d4d" fill-rule="evenodd"/>
      </g>
      <g id="Vector">
        <path id="Path_3206" data-name="Path 3206" d="M174.953,175.168c-7.609,0-14.986-5.172-16.27-11.7-2.293-11.657,3.342-20.431,17.227-26.822l.836,1.816c-17.213,7.924-17.433,17.846-16.1,24.62,1.188,6.037,8.528,10.72,15.71,10.02,3.48-.339,11.575-2.609,11.575-16.331h2c0,10.656-5,17.506-13.382,18.322C176.017,175.142,175.484,175.168,174.953,175.168Z" fill="#4d4d4d"/>
      </g>
      <g id="Vector_2" data-name="Vector 2">
        <path id="Path_3207" data-name="Path 3207" d="M196.931,195.954c-1.675-2.452-2.609-7.66-.7-13.3,1.746-5.157,6.311-12.124,18.147-16.031a14.909,14.909,0,0,0,9.422-9.4c1.713-4.766,1.369-10.344-.857-13.88-4.635-8.645-16.492-11.08-21.014-10.429l-.286-1.98c5.153-.742,17.9,1.84,23.028,11.4,2.541,4.032,2.951,10.164,1.011,15.562a16.868,16.868,0,0,1-10.677,10.618c-11.053,3.648-15.28,10.048-16.88,14.774-1.613,4.767-.991,9.408.458,11.529Z" fill="#4d4d4d"/>
      </g>
      <g id="Vector_3" data-name="Vector 3">
        <path id="Path_3208" data-name="Path 3208" d="M194.336,157.769H183.512a8.372,8.372,0,0,1-8.372-8.372V111.613a8.372,8.372,0,0,1,8.372-8.372v2a6.371,6.371,0,0,0-6.372,6.372V149.4a6.371,6.371,0,0,0,6.372,6.372h10.824a6.371,6.371,0,0,0,6.372-6.372V111.613a6.373,6.373,0,0,0-6.362-6.372l0-2a8.373,8.373,0,0,1,8.359,8.372V149.4a8.372,8.372,0,0,1-8.372,8.372Z" fill="#4d4d4d"/>
      </g>
      <g id="Vector_4" data-name="Vector 4">
        <rect id="Rectangle_182" data-name="Rectangle 182" width="2" height="7.536" transform="translate(193.717 100.097)" fill="#4d4d4d"/>
      </g>
      <g id="Vector_5" data-name="Vector 5">
        <rect id="Rectangle_183" data-name="Rectangle 183" width="2" height="7.536" transform="translate(182.366 100.097)" fill="#4d4d4d"/>
      </g>
      <g id="Vector_6" data-name="Vector 6">
        <rect id="Rectangle_184" data-name="Rectangle 184" width="15.403" height="1.041" transform="translate(180.763 126.627)" fill="#4d4d4d"/>
      </g>
      <g id="Vector_7" data-name="Vector 7">
        <rect id="Rectangle_185" data-name="Rectangle 185" width="15.403" height="1.041" transform="translate(180.763 130.298)" fill="#4d4d4d"/>
      </g>
      <g id="Vector_10" data-name="Vector 10">
        <g id="Group_260" data-name="Group 260">
          <path id="Path_3209" data-name="Path 3209" d="M188.865,121.646h-8.1v-8.1h8.1Zm-7.1-1h6.1v-6.1h-6.1Z" fill="#4d4d4d"/>
        </g>
      </g>
      <g id="Vector_11" data-name="Vector 11">
        <rect id="Rectangle_186" data-name="Rectangle 186" width="10.801" height="1.064" transform="translate(180.763 133.957)" fill="#4d4d4d"/>
      </g>
      <g id="Ellipse_1" data-name="Ellipse 1">
        <path id="Path_3210" data-name="Path 3210" d="M197.757,208.39a7,7,0,1,1,7-7A7.008,7.008,0,0,1,197.757,208.39Z" fill="#4d4d4d"/>
      </g>
      <g id="Group_261" data-name="Group 261">
        <path id="Path_3211" data-name="Path 3211" d="M129.078,217.3v3.925h4.591V217.3h1.24v9.38h-1.24v-4.4h-4.591v4.4h-1.225V217.3Z" fill="#4d4d4d"/>
        <path id="Path_3212" data-name="Path 3212" d="M137.684,223.533a2.171,2.171,0,0,0,2.338,2.338,4.526,4.526,0,0,0,1.887-.348l.211.877a5.591,5.591,0,0,1-2.267.417,3.145,3.145,0,0,1-3.352-3.4c0-2.032,1.211-3.633,3.2-3.633,2.225,0,2.817,1.935,2.817,3.173a4.548,4.548,0,0,1-.043.571Zm3.633-.877a1.749,1.749,0,0,0-1.718-1.99,2.039,2.039,0,0,0-1.9,1.99Z" fill="#4d4d4d"/>
        <path id="Path_3213" data-name="Path 3213" d="M147.825,226.678l-.1-.849h-.042a2.548,2.548,0,0,1-2.084,1,1.931,1.931,0,0,1-2.085-1.934c0-1.629,1.465-2.519,4.1-2.505v-.139a1.4,1.4,0,0,0-1.55-1.559,3.429,3.429,0,0,0-1.774.5l-.282-.807a4.268,4.268,0,0,1,2.239-.6c2.085,0,2.592,1.406,2.592,2.756v2.519a9.426,9.426,0,0,0,.112,1.614Zm-.183-3.437c-1.352-.028-2.887.208-2.887,1.516a1.09,1.09,0,0,0,1.169,1.169,1.693,1.693,0,0,0,1.647-1.127,1.24,1.24,0,0,0,.071-.389Z" fill="#4d4d4d"/>
        <path id="Path_3214" data-name="Path 3214" d="M150.839,216.8h1.24v9.88h-1.24Z" fill="#4d4d4d"/>
        <path id="Path_3215" data-name="Path 3215" d="M155.656,218.008v1.935h1.775v.932h-1.775v3.632c0,.835.239,1.308.929,1.308a2.834,2.834,0,0,0,.719-.083l.056.918a3.075,3.075,0,0,1-1.1.167,1.726,1.726,0,0,1-1.338-.515,2.474,2.474,0,0,1-.479-1.753v-3.674h-1.057v-.932h1.057v-1.615Z" fill="#4d4d4d"/>
        <path id="Path_3216" data-name="Path 3216" d="M158.825,216.8h1.24V221h.028a2.288,2.288,0,0,1,.887-.863,2.583,2.583,0,0,1,1.268-.348c.915,0,2.38.557,2.38,2.881v4.008h-1.24v-3.869c0-1.085-.408-2-1.577-2a1.779,1.779,0,0,0-1.662,1.225,1.474,1.474,0,0,0-.084.584v4.064h-1.24Z" fill="#4d4d4d"/>
        <path id="Path_3217" data-name="Path 3217" d="M171.009,218.05a.768.768,0,0,1-1.536,0,.751.751,0,0,1,.775-.765A.731.731,0,0,1,171.009,218.05Zm-1.381,8.628v-6.735h1.24v6.735Z" fill="#4d4d4d"/>
        <path id="Path_3218" data-name="Path 3218" d="M172.924,221.766c0-.7-.014-1.267-.056-1.823h1.1l.071,1.113h.028a2.512,2.512,0,0,1,2.253-1.267c.944,0,2.409.557,2.409,2.867v4.022h-1.24v-3.883c0-1.085-.408-1.99-1.577-1.99a1.8,1.8,0,0,0-1.746,1.823v4.05h-1.24Z" fill="#4d4d4d"/>
        <path id="Path_3219" data-name="Path 3219" d="M184.178,219.943l1.493,3.98c.155.445.324.974.436,1.377h.028c.127-.4.268-.918.437-1.4l1.352-3.952h1.31l-1.859,4.8c-.887,2.31-1.493,3.492-2.338,4.216a3.365,3.365,0,0,1-1.521.793l-.31-1.029a3.315,3.315,0,0,0,1.085-.6,3.724,3.724,0,0,0,1.042-1.364.869.869,0,0,0,.1-.292,1.066,1.066,0,0,0-.084-.32l-2.521-6.206Z" fill="#4d4d4d"/>
        <path id="Path_3220" data-name="Path 3220" d="M196.389,223.255a3.31,3.31,0,0,1-3.394,3.576,3.22,3.22,0,0,1-3.268-3.465,3.307,3.307,0,0,1,3.38-3.577A3.207,3.207,0,0,1,196.389,223.255Zm-5.408.069c0,1.475.859,2.589,2.07,2.589,1.183,0,2.07-1.1,2.07-2.617,0-1.141-.577-2.588-2.042-2.588S190.981,222.044,190.981,223.324Z" fill="#4d4d4d"/>
        <path id="Path_3221" data-name="Path 3221" d="M203.657,224.841c0,.7.014,1.308.056,1.837h-1.1l-.071-1.1h-.028a2.57,2.57,0,0,1-2.253,1.252c-1.071,0-2.352-.585-2.352-2.95v-3.938h1.239v3.729c0,1.28.394,2.143,1.521,2.143a1.725,1.725,0,0,0,1.746-1.739v-4.133h1.24Z" fill="#4d4d4d"/>
        <path id="Path_3222" data-name="Path 3222" d="M205.714,222.044c0-.793-.015-1.475-.057-2.1h1.085l.042,1.322h.056a2.042,2.042,0,0,1,1.888-1.476,1.354,1.354,0,0,1,.352.042v1.155a1.879,1.879,0,0,0-.423-.042,1.731,1.731,0,0,0-1.662,1.573,3.43,3.43,0,0,0-.056.571v3.59h-1.225Z" fill="#4d4d4d"/>
        <path id="Path_3223" data-name="Path 3223" d="M213.3,216.8h1.24V221h.028a2.288,2.288,0,0,1,.887-.863,2.582,2.582,0,0,1,1.268-.348c.915,0,2.38.557,2.38,2.881v4.008h-1.24v-3.869c0-1.085-.408-2-1.577-2a1.778,1.778,0,0,0-1.662,1.225,1.474,1.474,0,0,0-.084.584v4.064H213.3Z" fill="#4d4d4d"/>
        <path id="Path_3224" data-name="Path 3224" d="M224.9,226.678l-.1-.849h-.042a2.548,2.548,0,0,1-2.084,1,1.931,1.931,0,0,1-2.085-1.934c0-1.629,1.465-2.519,4.1-2.505v-.139a1.4,1.4,0,0,0-1.55-1.559,3.429,3.429,0,0,0-1.774.5l-.282-.807a4.268,4.268,0,0,1,2.239-.6c2.085,0,2.592,1.406,2.592,2.756v2.519a9.426,9.426,0,0,0,.112,1.614Zm-.183-3.437c-1.352-.028-2.887.208-2.887,1.516A1.09,1.09,0,0,0,223,225.926a1.693,1.693,0,0,0,1.647-1.127,1.24,1.24,0,0,0,.071-.389Z" fill="#4d4d4d"/>
        <path id="Path_3225" data-name="Path 3225" d="M227.911,221.766c0-.7-.014-1.267-.056-1.823h1.1l.07,1.113h.028a2.513,2.513,0,0,1,2.254-1.267c.943,0,2.408.557,2.408,2.867v4.022h-1.239v-3.883c0-1.085-.409-1.99-1.578-1.99a1.8,1.8,0,0,0-1.746,1.823v4.05h-1.24Z" fill="#4d4d4d"/>
        <path id="Path_3226" data-name="Path 3226" d="M241.616,216.8v8.14c0,.6.014,1.281.056,1.74h-1.113l-.056-1.169h-.028a2.528,2.528,0,0,1-2.324,1.322c-1.648,0-2.915-1.378-2.915-3.423-.015-2.241,1.394-3.619,3.056-3.619a2.288,2.288,0,0,1,2.056,1.03h.028V216.8Zm-1.24,5.886a2.151,2.151,0,0,0-.056-.515,1.818,1.818,0,0,0-1.789-1.419c-1.281,0-2.042,1.113-2.042,2.6,0,1.364.676,2.491,2.014,2.491a1.859,1.859,0,0,0,1.817-1.461,2.116,2.116,0,0,0,.056-.529Z" fill="#4d4d4d"/>
        <path id="Path_3227" data-name="Path 3227" d="M243.5,225.425a3.274,3.274,0,0,0,1.634.488c.9,0,1.324-.446,1.324-1,0-.585-.352-.9-1.268-1.239-1.225-.431-1.8-1.1-1.8-1.906a2.094,2.094,0,0,1,2.352-1.977,3.433,3.433,0,0,1,1.676.418l-.31.891a2.678,2.678,0,0,0-1.394-.39c-.733,0-1.141.417-1.141.918,0,.557.408.808,1.295,1.141,1.183.446,1.789,1.03,1.789,2.032,0,1.183-.929,2.018-2.549,2.018a3.925,3.925,0,0,1-1.915-.459Z" fill="#4d4d4d"/>
      </g>
      <circle id="Ellipse_48" data-name="Ellipse 48" cx="5" cy="5" r="5" transform="translate(192.757 196.39)" fill="#f2f2f2"/>
      <rect id="Rectangle_187" data-name="Rectangle 187" width="6.102" height="6.102" transform="translate(181.763 114.543)" fill="#f2f2f2"/>
    </g>
  </g>
</svg>
