<svg xmlns="http://www.w3.org/2000/svg" width="37.878" height="31.096" viewBox="0 0 37.878 31.096">
  <path id="Path_3263" data-name="Path 3263" d="M213.109,12078.736a22.21,22.21,0,0,0,11.926,3.437A21.811,21.811,0,0,0,247.162,12060c1.5-1.285,3.269-3.739,3.269-6.132a1.2,1.2,0,0,0-1.8-1.031,4.946,4.946,0,0,1-4.022.674,8.545,8.545,0,0,0-10.118-1.361,8.219,8.219,0,0,0-4.462,7.7,19.82,19.82,0,0,1-12.856-7.021,1.2,1.2,0,0,0-1.955.16,8.337,8.337,0,0,0-.187,8.231,1.245,1.245,0,0,0-1.039,1.239,8.436,8.436,0,0,0,2.939,6.372,1.193,1.193,0,0,0-.306,1.239,8.587,8.587,0,0,0,4.859,5.205,13.926,13.926,0,0,1-7.585,1.266,1.2,1.2,0,0,0-.788,2.2Zm12.253-3.053a1.2,1.2,0,0,0-.7-2.143,6.237,6.237,0,0,1-4.9-2.549,8.525,8.525,0,0,0,1.633-.261,1.2,1.2,0,0,0-.077-2.327,6.141,6.141,0,0,1-4.652-4.18,8.167,8.167,0,0,0,1.824.243,1.2,1.2,0,0,0,.681-2.194,5.944,5.944,0,0,1-2.545-6.487,22.242,22.242,0,0,0,14.731,6.575,1.2,1.2,0,0,0,1.224-1.462,5.836,5.836,0,0,1,3.046-6.646,6.116,6.116,0,0,1,7.476,1.135c.713.752,3.118.78,4.341.5a7.709,7.709,0,0,1-2.181,2.566,1.193,1.193,0,0,0-.509,1.038,19.415,19.415,0,0,1-19.715,20.292,20.087,20.087,0,0,1-6.445-1.056,16.148,16.148,0,0,0,6.77-3.04Z" transform="translate(-212.553 -12051.077)" fill="#00fff8"/>
</svg>
