<svg width="30" height="31" viewBox="0 0 30 31" fill="none" xmlns="http://www.w3.org/2000/svg">
<g clip-path="url(#clip0)">
<path d="M14.3399 22.2071L20.1083 16.4319C20.3386 16.2009 20.4679 15.888 20.4679 15.5619C20.4679 15.2357 20.3386 14.9228 20.1083 14.6919L14.3399 8.92342C14.1676 8.75296 13.9489 8.6371 13.7111 8.59032C13.4733 8.54354 13.227 8.56792 13.0029 8.66041C12.7789 8.75291 12.5872 8.90941 12.4516 9.11034C12.3161 9.31126 12.2429 9.54769 12.241 9.79004V21.2999C12.2347 21.5457 12.3021 21.7878 12.4345 21.995C12.5669 22.2022 12.7582 22.365 12.9839 22.4626C13.2096 22.5602 13.4594 22.588 13.701 22.5424C13.9427 22.4969 14.1652 22.3801 14.3399 22.2071V22.2071Z" stroke="#585858" stroke-miterlimit="10"/>
<path d="M15.0034 30.2098C23.1026 30.2098 29.6682 23.6441 29.6682 15.5449C29.6682 7.44577 23.1026 0.880089 15.0034 0.880089C6.90421 0.880089 0.338524 7.44577 0.338524 15.5449C0.338524 23.6441 6.90421 30.2098 15.0034 30.2098Z" stroke="#585858" stroke-miterlimit="10"/>
</g>
<defs>
<clipPath id="clip0">
<rect width="30" height="30" fill="white" transform="translate(0 0.541565)"/>
</clipPath>
</defs>
</svg>
