<svg xmlns="http://www.w3.org/2000/svg" width="111.026" height="92.522" viewBox="0 0 111.026 92.522">
  <g id="Group_182" data-name="Group 182" transform="translate(-667.313 -7773.509)">
    <path id="Path_784" data-name="Path 784" d="M736.635,7838.274a7.592,7.592,0,0,1-7.568-5.769l-3.007-21.488a3.514,3.514,0,0,0-6.495.157l-2.952,21.179a7.618,7.618,0,0,1-7.6,5.921,7.509,7.509,0,0,1-7.665-6.342l-1.166-14.373c-.037-.3-.463-2.642-3.386-16a73.936,73.936,0,0,1-1.731-15.918,12.188,12.188,0,0,1,12.213-12.134,12.575,12.575,0,0,1,6.421,1.762,17.819,17.819,0,0,0,18.246,0,12.575,12.575,0,0,1,6.421-1.762,12.188,12.188,0,0,1,12.213,12.134,74.089,74.089,0,0,1-1.73,15.928c-2.929,13.36-3.354,15.7-3.4,16.08l-1.152,14.193a.668.668,0,0,1-.009.088,7.506,7.506,0,0,1-7.661,6.342Zm-13.809-33.979a7.819,7.819,0,0,1,7.79,5.927l3.007,21.488a3.016,3.016,0,0,0,3.012,1.938,2.958,2.958,0,0,0,3.067-2.23l1.157-14.234c.055-.463.194-1.587,3.483-16.6a70.181,70.181,0,0,0,1.615-14.938,7.557,7.557,0,0,0-7.587-7.508,7.893,7.893,0,0,0-4.053,1.115,22.47,22.47,0,0,1-22.982,0,7.894,7.894,0,0,0-4.053-1.115,7.557,7.557,0,0,0-7.587,7.508,69.777,69.777,0,0,0,1.62,14.928c3.289,15.012,3.428,16.146,3.469,16.52l1.171,14.378a2.946,2.946,0,0,0,3.062,2.179,3,3,0,0,0,3.039-2.095l2.952-21.179a7.845,7.845,0,0,1,7.818-6.079ZM742,7831.659h0Z" fill="#1b1464"/>
    <path id="Path_785" data-name="Path 785" d="M776.026,7815.144h-4.579a38.9,38.9,0,0,1-25.87-9.835,2.314,2.314,0,0,1,3.072-3.461,34.28,34.28,0,0,0,22.8,8.67h4.58a2.313,2.313,0,0,1,0,4.626Z" fill="#1b1464"/>
    <path id="Path_786" data-name="Path 786" d="M674.206,7815.144h-4.58a2.313,2.313,0,0,1,0-4.626h4.58a34.28,34.28,0,0,0,22.8-8.67,2.314,2.314,0,0,1,3.072,3.461A38.9,38.9,0,0,1,674.206,7815.144Z" fill="#1b1464"/>
    <path id="Path_787" data-name="Path 787" d="M713.574,7866.031a2.305,2.305,0,0,1-1.985-1.124c-4.885-8.142-6.546-17.991-4.931-29.274a2.313,2.313,0,1,1,4.58.657c-1.458,10.205-.005,19.031,4.32,26.239a2.31,2.31,0,0,1-1.984,3.5Z" fill="#1b1464"/>
    <path id="Path_788" data-name="Path 788" d="M732.078,7866.031a2.31,2.31,0,0,1-1.98-3.5c4.326-7.208,5.778-16.034,4.321-26.239a2.317,2.317,0,0,1,1.962-2.619,2.291,2.291,0,0,1,2.618,1.962c1.614,11.283-.046,21.132-4.931,29.274A2.325,2.325,0,0,1,732.078,7866.031Z" fill="#1b1464"/>
    <path id="Path_789" data-name="Path 789" d="M688.13,7833.648a2.325,2.325,0,0,1-1.637-.675l-4.627-4.626a2.313,2.313,0,0,1,3.271-3.271l4.626,4.626a2.31,2.31,0,0,1-1.633,3.946Z" fill="#1b1464"/>
    <path id="Path_790" data-name="Path 790" d="M674.252,7852.153a2.311,2.311,0,0,1-1.638-3.946l4.626-4.627a2.313,2.313,0,0,1,3.271,3.271l-4.626,4.626A2.306,2.306,0,0,1,674.252,7852.153Z" fill="#1b1464"/>
    <path id="Path_791" data-name="Path 791" d="M752.9,7852.153a2.311,2.311,0,0,1-1.638-3.946l4.626-4.627a2.313,2.313,0,0,1,3.271,3.271l-4.626,4.626A2.306,2.306,0,0,1,752.9,7852.153Z" fill="#1b1464"/>
    <path id="Path_792" data-name="Path 792" d="M771.4,7833.648a2.325,2.325,0,0,1-1.637-.675l-4.627-4.626a2.313,2.313,0,0,1,3.271-3.271l4.626,4.626a2.31,2.31,0,0,1-1.633,3.946Z" fill="#1b1464"/>
    <path id="Path_793" data-name="Path 793" d="M776.026,7866.031h-106.4a2.313,2.313,0,0,1,0-4.626h106.4a2.313,2.313,0,0,1,0,4.626Z" fill="#1b1464"/>
  </g>
</svg>
