<svg xmlns="http://www.w3.org/2000/svg" width="74.961" height="94.112" viewBox="0 0 74.961 94.112">
  <g id="Group_181" data-name="Group 181" transform="translate(-677.319 -7352.064)">
    <path id="Path_775" data-name="Path 775" d="M705.761,7421.234a1.38,1.38,0,0,0,.962-1.7,3.953,3.953,0,0,0-4.34-3,1.379,1.379,0,0,0,.365,2.734,1.186,1.186,0,0,1,1.317,1,1.376,1.376,0,0,0,1.7.962Z" fill="#1b1464"/>
    <path id="Path_776" data-name="Path 776" d="M723.838,7421.234a1.38,1.38,0,0,1-.962-1.7,3.953,3.953,0,0,1,4.339-3,1.379,1.379,0,1,1-.364,2.734,1.186,1.186,0,0,0-1.317,1,1.376,1.376,0,0,1-1.7.962Z" fill="#1b1464"/>
    <path id="Path_777" data-name="Path 777" d="M735.524,7429.441a2.335,2.335,0,0,0-2.333,2.332v2.643a2.335,2.335,0,0,0,2.333,2.332h4.627a2.335,2.335,0,0,0,2.333-2.332v-2.643a2.335,2.335,0,0,0-2.333-2.332Zm4.2,4.549h-3.776V7432.2h3.776Z" fill="#1b1464"/>
    <path id="Path_778" data-name="Path 778" d="M689.173,7431.4h4.382a1.379,1.379,0,1,0,0-2.758h-4.382a1.379,1.379,0,1,0,0,2.758Z" fill="#1b1464"/>
    <path id="Path_779" data-name="Path 779" d="M689.173,7436h3.1a1.379,1.379,0,1,0,0-2.757h-3.1a1.379,1.379,0,1,0,0,2.757Z" fill="#1b1464"/>
    <path id="Path_780" data-name="Path 780" d="M684.214,7406.844a1.378,1.378,0,0,0-1.379,1.379v31.059a1.379,1.379,0,0,0,1.379,1.379h61.171a1.379,1.379,0,0,0,1.379-1.379v-61.23a1.379,1.379,0,0,0-1.379-1.379H684.214a1.379,1.379,0,0,0-1.379,1.379v24.657a1.379,1.379,0,0,0,2.758,0v-23.278h58.413V7437.9h-16.3c-.018-.113-.035-.226-.05-.336a8.205,8.205,0,0,1,4.009-8.173l.084-.051a9.98,9.98,0,0,0,4.73-7.7,1.379,1.379,0,1,0-2.749-.227,7.216,7.216,0,0,1-3.412,5.57l-.07.042a10.96,10.96,0,0,0-5.33,10.875h-4.995c-.123-4.9-.426-16.9-.545-21.65l3.265-2.064a7.065,7.065,0,0,1,2.762-1.042l.092-.013a7.186,7.186,0,0,1,7.256,3.622,1.379,1.379,0,1,0,2.4-1.362,9.931,9.931,0,0,0-10.035-4.991l-.108.015a9.808,9.808,0,0,0-3.838,1.439l-1.873,1.185c-.035-1.367-.245-9.719-.277-10.965a12.609,12.609,0,0,1,7.085,3.569l2.207,2.207a1.379,1.379,0,0,0,1.95-1.951l-2.207-2.206a15.359,15.359,0,0,0-9.105-4.409c-.021-.815-.088-3.483-.109-4.341a40.14,40.14,0,0,1,4.323,0,12.6,12.6,0,0,1,8.22,3.683l2.207,2.207a1.379,1.379,0,0,0,1.951-1.95l-2.207-2.207a15.364,15.364,0,0,0-10.018-4.487,42.76,42.76,0,0,0-4.546,0c-.013-.516-.1-4.113-.113-4.48a43.765,43.765,0,0,1,9.58-.587,12.606,12.606,0,0,1,8.22,3.684l2.207,2.207a1.379,1.379,0,1,0,1.95-1.95l-2.206-2.207a15.359,15.359,0,0,0-10.018-4.487,46.19,46.19,0,0,0-9.8.557,3.8,3.8,0,0,0-7.582,0,46.2,46.2,0,0,0-9.8-.557,15.361,15.361,0,0,0-10.018,4.487l-2.207,2.207a1.379,1.379,0,0,0,1.951,1.95l2.206-2.207a12.611,12.611,0,0,1,8.221-3.684,43.756,43.756,0,0,1,9.579.587l-.113,4.479a42.738,42.738,0,0,0-4.545,0,15.36,15.36,0,0,0-10.018,4.487l-2.207,2.207a1.379,1.379,0,1,0,1.95,1.95l2.207-2.207a12.611,12.611,0,0,1,8.221-3.684,40.4,40.4,0,0,1,4.323,0c-.023.894-.089,3.526-.11,4.341a15.362,15.362,0,0,0-9.105,4.409l-2.206,2.206a1.379,1.379,0,0,0,1.95,1.951l2.207-2.207a12.607,12.607,0,0,1,7.084-3.569c0,.022-.293,11.647-.276,10.965l-1.873-1.185a9.832,9.832,0,0,0-3.853-1.441l-.095-.014a9.858,9.858,0,0,0-7.37,1.944,10.011,10.011,0,0,0-3.891,6.7c-.04.308-.074.617-.1.918a10.04,10.04,0,0,0,4.725,9.378l.09.055a8.2,8.2,0,0,1,4.006,8.171c-.015.111-.032.223-.05.336h-16.3v-29.679a1.378,1.378,0,0,0-1.379-1.379Zm32.593,16.714a5.954,5.954,0,0,1-4.015,0l.1-4.068a7.812,7.812,0,0,0,3.81,0Zm-4.087,2.854a8.547,8.547,0,0,0,4.159,0l.1,4.075a6.674,6.674,0,0,1-4.365,0Zm.523-20.772a6.6,6.6,0,0,0,3.112,0l.1,4.067a4.5,4.5,0,0,1-3.317,0Zm2.866-9.782a3.328,3.328,0,0,1-2.619,0l.1-4.054a5.29,5.29,0,0,0,2.415,0Zm-1.309,3.026a6.02,6.02,0,0,0,1.381-.162l.1,4.06a3.905,3.905,0,0,1-2.968,0l.1-4.06a6.021,6.021,0,0,0,1.382.162Zm0,13.9a7.155,7.155,0,0,0,1.73-.214c.025,1.007.077,3.066.1,4.062a5.256,5.256,0,0,1-3.666,0c.026-1,.078-3.064.1-4.062a7.157,7.157,0,0,0,1.731.214Zm-2.369,25.119.115-4.566a9.31,9.31,0,0,0,4.507,0l.115,4.566Zm2.368-53.8a1.033,1.033,0,0,1,1.039,1.013l.1,3.82a2.711,2.711,0,0,1-2.27,0l.1-3.82a1.032,1.032,0,0,1,1.038-1.013Zm-15.453,42.924-.068-.041a7.268,7.268,0,0,1-3.413-6.791c.022-.258.051-.524.086-.789a7.279,7.279,0,0,1,2.827-4.866,7.117,7.117,0,0,1,5.319-1.406l.092.013a7.053,7.053,0,0,1,2.762,1.042l3.266,2.064c-.083,3.278-.489,19.409-.545,21.65h-5A10.959,10.959,0,0,0,699.346,7427.026Z" fill="#1b1464"/>
    <path id="Path_781" data-name="Path 781" d="M750.9,7386.227a1.379,1.379,0,0,0,1.379-1.378v-10.137a3.559,3.559,0,0,0-3.555-3.555h-5.31l-.129-.707a9.418,9.418,0,0,0-8.188-7.615l-5.628-.616a6.633,6.633,0,0,1-5.675-4.919l-1.079-4.2a1.379,1.379,0,0,0-2.671.686l1.079,4.2a9.4,9.4,0,0,0,8.046,6.975l5.628.616a6.641,6.641,0,0,1,5.775,5.371l.039.21H688.987l.039-.21a6.642,6.642,0,0,1,5.774-5.372l5.628-.615a9.4,9.4,0,0,0,8.047-6.975l1.079-4.2a1.379,1.379,0,0,0-2.671-.686l-1.079,4.2a6.633,6.633,0,0,1-5.675,4.919l-5.628.616a9.417,9.417,0,0,0-8.188,7.616l-.129.706h-5.31a3.559,3.559,0,0,0-3.555,3.555v67.91a3.559,3.559,0,0,0,3.555,3.555h67.851a3.559,3.559,0,0,0,3.555-3.555v-52.26a1.379,1.379,0,0,0-2.758,0v52.259a.8.8,0,0,1-.8.8H680.874a.8.8,0,0,1-.8-.8v-67.909a.8.8,0,0,1,.8-.8h67.851a.8.8,0,0,1,.8.8v10.137A1.378,1.378,0,0,0,750.9,7386.227Z" fill="#1b1464"/>
  </g>
</svg>
