<svg xmlns="http://www.w3.org/2000/svg" width="8.873" height="4.345" viewBox="0 0 8.873 4.345">
  <g id="Group_299" data-name="Group 299" transform="translate(-1054.957 -7379.561)">
    <path id="Path_782" data-name="Path 782" d="M1063.792,7381.569a5.31,5.31,0,0,0-5.349-1.854,7.81,7.81,0,0,0-3.306,1.863.549.549,0,0,0-.058.752.621.621,0,0,0,.741.165l.187-.087a5.326,5.326,0,0,0,3.51,1.5c.079,0,.159,0,.238-.006a5.127,5.127,0,0,0,3.273-1.565.143.143,0,0,0-.213-.191,4.908,4.908,0,0,1-3.075,1.471,5,5,0,0,1-3.613-1.481.143.143,0,0,0-.156-.023l-.272.127a.333.333,0,0,1-.4-.085.262.262,0,0,1,.03-.364c1.038-.963,4.7-3.81,8.251-.022a.143.143,0,0,0,.208-.2Z" fill="#1b1464"/>
    <path id="Path_783" data-name="Path 783" d="M1072.6,7387.371a.143.143,0,0,0,.1-.243,4.772,4.772,0,0,0-2.326-1.394,3.654,3.654,0,0,0-2.2.1,6.2,6.2,0,0,0-2.263,1.295.143.143,0,0,0,.2.2,5.955,5.955,0,0,1,1.493-.985,1.87,1.87,0,1,0,3.53-.034,5.132,5.132,0,0,1,1.359,1.017A.142.142,0,0,0,1072.6,7387.371Zm-3.221,1.13a1.558,1.558,0,0,1-1.391-2.262,4.009,4.009,0,0,1,.961-.276,1.08,1.08,0,0,0-.427.337.357.357,0,0,1,0,.714.353.353,0,0,1-.214-.073h0a1.072,1.072,0,1,0,1.441-1.005,3.243,3.243,0,0,1,1,.26,1.556,1.556,0,0,1-1.367,2.3Z" transform="translate(-9.905 -5.489)" fill="#1b1464"/>
  </g>
</svg>
