<svg xmlns="http://www.w3.org/2000/svg" width="74.354" height="89.226" viewBox="0 0 74.354 89.226">
  <g id="Group_184" data-name="Group 184" transform="translate(-1060.188 -7775.157)">
    <g id="Group_183" data-name="Group 183">
      <path id="Path_794" data-name="Path 794" d="M1134.225,7791.885a5.3,5.3,0,0,0,.2-.7,5.729,5.729,0,0,0,.118-1.154,5.877,5.877,0,0,0-.812-2.974c.012-.021.02-.044.032-.064q.143-.253.259-.516c.043-.1.081-.194.119-.292.056-.148.111-.3.155-.449s.076-.3.108-.451c.025-.117.054-.232.072-.351a10.84,10.84,0,0,0-19.078-.848,6.016,6.016,0,0,0-5.343,3.011,5.891,5.891,0,0,0-3.516,1.717c-.06-.019-.125-.021-.186-.038a6.172,6.172,0,0,0-.7-.142c-.187-.027-.372-.05-.561-.059-.1,0-.193-.031-.292-.031a1.254,1.254,0,0,0-.185.037,9.993,9.993,0,0,1-7.5.233,6.054,6.054,0,0,0-7.036-1.031,21.925,21.925,0,0,1-7.048-4.826c-.015,0-.025-.018-.04-.023a5.762,5.762,0,0,0-1.127-.259c-.056-.008-.106-.032-.161-.039a29.875,29.875,0,0,1-7.865-7.217,10.7,10.7,0,0,0-10.674,7.176,5.746,5.746,0,0,0,.1,1.038c.018.1.039.209.063.313a5.947,5.947,0,0,0,.241.773c.064.168.141.326.219.486.061.122.114.247.183.365a552.648,552.648,0,0,1-.085,16.21,5.946,5.946,0,0,0-2.214,4.609,5.706,5.706,0,0,0,.27,1.734,5.939,5.939,0,0,0-1.292,1.913c-.074.175-.113.364-.17.545a5.628,5.628,0,0,0-.174.569,18.11,18.11,0,0,1,2.178,11.6c-.069.118-.122.243-.183.365-.078.16-.155.318-.219.486a5.9,5.9,0,0,0-.241.773c-.024.1-.045.207-.063.313a5.823,5.823,0,0,0-.106,1.037,40.2,40.2,0,0,1,4.515,12.6,5.6,5.6,0,0,0-.053.786,5.956,5.956,0,0,0,5.254,5.908,5.891,5.891,0,0,0,9.14,1.45,5.463,5.463,0,0,1-.925,2.474,10.029,10.029,0,0,0-1.573,5.039,7.927,7.927,0,0,0,1.739,4.544c.155.234.311.467.459.7a1.487,1.487,0,1,0,2.524-1.574c-.165-.263-.337-.521-.509-.78a5.372,5.372,0,0,1-1.239-2.894,7.257,7.257,0,0,1,1.206-3.609,6.638,6.638,0,0,0,.958-5.746,5.958,5.958,0,0,0,2.322-1.624,8.867,8.867,0,0,0,4.681,2.032,18.268,18.268,0,0,0-.244,3,19.1,19.1,0,0,0,2.127,9.322,6.13,6.13,0,0,1,.847,2.575,4.461,4.461,0,0,0,8.922,0,6.159,6.159,0,0,1,.847-2.581,19.245,19.245,0,0,0,1.72-4.869,5.354,5.354,0,0,0,.932-.012c.033.029.071.048.1.076a5.892,5.892,0,0,0,3.832,1.437,1.455,1.455,0,0,0,.5-.1,5.822,5.822,0,0,0,3.437-1.412,5.631,5.631,0,0,0,2.755-.423,5.751,5.751,0,0,0,2.23.449,5.939,5.939,0,0,0,5.156-3.015c.091-.011.175-.042.266-.056.171-.029.337-.065.5-.107a5.951,5.951,0,0,0,.593-.184c.159-.059.313-.122.465-.193.185-.089.364-.186.539-.293.142-.086.281-.171.415-.269a5.885,5.885,0,0,0,.474-.39c.121-.109.243-.214.355-.333a5.729,5.729,0,0,0,.4-.483c.1-.126.2-.246.285-.38a6.036,6.036,0,0,0,.314-.58c.068-.134.144-.262.2-.4a5.882,5.882,0,0,0,.222-.712c.033-.124.081-.241.106-.369a5.979,5.979,0,0,0,.117-1.156,5.736,5.736,0,0,0-.054-.786,5.962,5.962,0,0,0,2.634-3.079c.016-.035.042-.064.056-.1.024-.07.033-.143.055-.213.055-.176.1-.354.139-.536.023-.108.05-.215.067-.325a5.892,5.892,0,0,0,.077-.909,5.727,5.727,0,0,0-.054-.785,5.942,5.942,0,0,0,3.028-5.163,5.833,5.833,0,0,0-.45-2.231,5.752,5.752,0,0,0,0-4.461,5.828,5.828,0,0,0,.45-2.23,5.913,5.913,0,0,0-.108-1.078c-.011-.055-.027-.108-.039-.162a5.9,5.9,0,0,0-.292-.954c0-.012-.006-.025-.011-.037a5.836,5.836,0,0,0-1.063-6.168c.017-.177.026-.351.026-.524a5.762,5.762,0,0,0-.067-.851c-.017-.12-.047-.234-.071-.352-.032-.151-.064-.3-.108-.451s-.1-.3-.156-.449c-.038-.1-.076-.2-.119-.291-.078-.177-.164-.348-.258-.516-.012-.021-.02-.043-.032-.064a17.036,17.036,0,0,1,.811-8.923,5.659,5.659,0,0,0-.07-.891,11.5,11.5,0,0,1,.746-8.031,5.845,5.845,0,0,0,.386-.787C1134.15,7792.131,1134.177,7792.042,1134.225,7791.885Zm-43.285,50.237a6.244,6.244,0,0,1-4.1-1.854v0a5.891,5.891,0,0,0-2.909-6.326,5.731,5.731,0,0,0,.054-.786,5.839,5.839,0,0,0-.107-1.056c-.02-.113-.047-.221-.074-.332a5.6,5.6,0,0,0-.212-.68c-.042-.115-.079-.232-.129-.343a5.861,5.861,0,0,0-.427-.787c-.1-.15-.209-.287-.318-.428-.086-.11-.172-.218-.265-.321q-.2-.225-.42-.429c-.067-.061-.14-.115-.21-.173a5.932,5.932,0,0,0-1.109-.733c-.032-.016-.061-.037-.093-.053a5.842,5.842,0,0,0,.39-2.1,5.971,5.971,0,0,0-.122-1.192,11.326,11.326,0,0,0,8.169,5.6,14.889,14.889,0,0,0-.612,4.514,1.487,1.487,0,0,0,2.974,0c0-3.531,1.015-4.846,1.083-4.931.024-.025.032-.059.054-.085.9-.32,1.888-.749,2.989-1.233a24.173,24.173,0,0,1,9.258-2.674c5.881,0,7.268,1.5,7.592,2.152a1.487,1.487,0,0,0,2.661-1.33c-1.259-2.52-4.71-3.8-10.253-3.8a26.818,26.818,0,0,0-10.453,2.924,15.574,15.574,0,0,1-4.418,1.537,8.172,8.172,0,0,1-7.435-7.435c0-4.613,7.6-5.956,7.682-5.969a1.487,1.487,0,0,0-.247-2.954c-2.058,0-5.948-.932-5.948-4.461a1.487,1.487,0,1,0-2.974,0,6.843,6.843,0,0,0,3.717,6.143c-2.583,1.307-5.2,3.545-5.2,7.241a8.717,8.717,0,0,0,.407,2.551,5.975,5.975,0,0,0-.676-.813,5.731,5.731,0,0,0,.27-1.738,5.929,5.929,0,0,0-1.307-3.718,5.857,5.857,0,0,0,1.194-4.831c-.023-.122-.062-.237-.093-.357a6.012,6.012,0,0,0-.216-.694c-.051-.13-.112-.253-.171-.379a6,6,0,0,0-.322-.592c-.075-.12-.153-.236-.236-.351-.055-.075-.1-.159-.157-.232a5.94,5.94,0,0,0-.008-7.445,6.016,6.016,0,0,0,.515-.777c.029,0,.058-.013.087-.017a5.784,5.784,0,0,0,.632-.127c.028-.007.054-.008.082-.016a5.437,5.437,0,0,0,2.011.177,5.781,5.781,0,0,0,4.461,1.487,5.963,5.963,0,0,0,3.84,1.494c.034,0,.063.02.1.02.054,0,.106-.011.16-.013.141,0,.28-.019.421-.033s.279-.02.415-.043l.029-.007a6.111,6.111,0,0,0,.717-.171,27.815,27.815,0,0,0,14.365,0,5.7,5.7,0,0,0,2.235.233,7.142,7.142,0,0,0-.489,2.656,5.616,5.616,0,0,0-5.8,2.664,1.487,1.487,0,0,0,2.66,1.33c.008-.017.829-1.514,3.468-.913,1.03,3.812,4.284,4.709,7.1,4.709a1.487,1.487,0,1,0,0-2.974c-3.921,0-4.462-2.143-4.462-4.461,0-1.248.028-2.264,2.188-4.525a6.035,6.035,0,0,0,5.313-2.049,5.918,5.918,0,0,0,.385,1.369,5.833,5.833,0,0,0-.45,2.231,13.037,13.037,0,0,1,.812,10.409c-.013.021-.021.044-.033.065-.095.168-.18.339-.258.516-.043.1-.082.192-.119.29-.056.148-.111.3-.156.45s-.075.3-.107.45c-.025.118-.055.233-.072.353a5.791,5.791,0,0,0-.067.851c0,.033.009.066.01.1a27.1,27.1,0,0,0-17.872-3.366,7.849,7.849,0,0,0-7.419-7.143,1.487,1.487,0,1,0,0,2.974,4.9,4.9,0,0,1,4.462,4.461c0,2.218-2.555,4.462-7.436,4.462a1.487,1.487,0,1,0,0,2.974c5.244,0,8.387-2.075,9.694-4.592,2.008-.393,11.344-1.793,18.631,3.9a5.526,5.526,0,0,0-.07.692,5.925,5.925,0,0,0,1.307,3.717c-.059.073-.1.157-.156.232-.084.115-.162.231-.237.351a6.016,6.016,0,0,0-.321.592c-.06.126-.121.249-.171.379a5.634,5.634,0,0,0-.216.694c-.031.12-.07.235-.094.357a5.775,5.775,0,0,0,.7,4.087,5.886,5.886,0,0,0-.657,1.64,5.977,5.977,0,0,0-4,3.211l-.017,0c-.034-.013-.065-.032-.1-.045s-.082-.006-.123-.017a9.006,9.006,0,0,1-9.295-3.3,4.05,4.05,0,0,1-3.131-2.152,1.487,1.487,0,1,0-2.66,1.33,6.842,6.842,0,0,0,.55.877,5.958,5.958,0,0,0-4.48,3.152l-.026.017-.005,0-.007,0-.127.092-.028.021A12.539,12.539,0,0,0,1090.94,7842.122Zm40.211-11.937a2.916,2.916,0,0,1,.417,1.481,2.955,2.955,0,0,1-1.214,2.37,5.921,5.921,0,0,0-2.753-2.03,1.486,1.486,0,0,0-.99,2.8,2.974,2.974,0,0,1,1.794,1.8c.026.073.045.146.066.22a2.832,2.832,0,0,1-1.089,3.148,6,6,0,0,0-.771-.853,1.488,1.488,0,0,0-1.984,2.217,2.945,2.945,0,0,1,.816,1.259,3.02,3.02,0,0,1,.115.383,2.949,2.949,0,0,1-2.884,3.546c-.059-.007-.182-.019-.221-.022a1.419,1.419,0,0,0-1.477,1,2.972,2.972,0,0,1-4.275,1.586,1.478,1.478,0,0,0-1.5,0,2.633,2.633,0,0,1-2.179.322,1.475,1.475,0,0,0-1.492.494,3.008,3.008,0,0,1-4.545,0c-.009-.01-.02-.016-.028-.026a2.942,2.942,0,0,1,.083-3.843,1.487,1.487,0,0,0-2.216-1.984,5.881,5.881,0,0,0-1.4,5.092,3.007,3.007,0,0,1-.846-.632,1.487,1.487,0,1,0-2.213,1.987,5.992,5.992,0,0,0,1.178,1.007,16,16,0,0,1-1.555,4.543,8.606,8.606,0,0,0-1.139,3.866,1.487,1.487,0,1,1-2.974,0,8.58,8.58,0,0,0-1.14-3.863,16.246,16.246,0,0,1-1.834-8.034,14.082,14.082,0,0,1,.643-4.3,11.921,11.921,0,0,1,.58-1.5c.016-.034.031-.071.047-.1.126-.26.256-.5.388-.729l.039-.066a9.866,9.866,0,0,1,1.189-1.623l.021-.023a7.658,7.658,0,0,1,.611-.6,1.432,1.432,0,0,0,.215-.07,1.461,1.461,0,0,0,.151-.049,1.433,1.433,0,0,0,.237-.153c.028-.02.06-.033.086-.055a1.526,1.526,0,0,0,.214-.234c.014-.018.033-.032.046-.052a1.475,1.475,0,0,0,.182-.351,2.961,2.961,0,0,1,2.015-1.84,5.939,5.939,0,0,0-.376.847,1.486,1.486,0,1,0,2.8.99,2.945,2.945,0,0,1,1.5-1.641,3.149,3.149,0,0,1,.5-.215,2.92,2.92,0,0,1,.805-.126,2.973,2.973,0,0,1,2.946,2.772,1.487,1.487,0,0,0,2.489.993,3.054,3.054,0,0,1,3.629-.278,2.879,2.879,0,0,1,.3.223,2.967,2.967,0,0,1,1.048,2.238,1.487,1.487,0,0,0,2.974,0,5.929,5.929,0,0,0-1.36-3.756,2.969,2.969,0,0,1,2.847-2.192,1.487,1.487,0,0,0,1.487-1.488,2.968,2.968,0,0,1,.776-1.979,1.484,1.484,0,0,0,0-1.989,2.874,2.874,0,0,1-.691-2.654c.014-.065.039-.125.058-.188a2.969,2.969,0,0,1,.173-.445c.032-.064.067-.127.1-.189a3,3,0,0,1,.285-.4c.037-.044.07-.091.11-.132a2.93,2.93,0,0,1,.522-.447l0,0a2.953,2.953,0,0,1,1.636-.5,1.487,1.487,0,1,0,0-2.974,5.9,5.9,0,0,0-2.244.447,2.956,2.956,0,0,1-.73-1.934,2.909,2.909,0,0,1,.417-1.481,1.493,1.493,0,0,0,0-1.5,2.908,2.908,0,0,1-.417-1.481,2.966,2.966,0,0,1,.124-.788c.019-.066.034-.134.058-.2a2.954,2.954,0,0,1,.3-.6,3.316,3.316,0,0,1,1.5-1.216,1.487,1.487,0,0,0-.991-2.8,6.087,6.087,0,0,0-.882.4,2.834,2.834,0,0,1-.11-.738,2.964,2.964,0,0,1,1.336-2.477,1.489,1.489,0,0,0,0-2.481,2.964,2.964,0,0,1-1.336-2.477,2.9,2.9,0,0,1,.417-1.481,1.493,1.493,0,0,0,0-1.5,2.9,2.9,0,0,1-.417-1.481c0-.067.014-.134.02-.2.128-.034.251-.08.376-.123a.947.947,0,0,0,.1-.017c.064-.023.121-.057.184-.082.12-.047.237-.1.353-.157.152-.071.3-.142.447-.225.052-.03.1-.065.149-.1a5.935,5.935,0,0,0,2.032-2.1l.009-.013a5.761,5.761,0,0,0,1.3-.305,1.478,1.478,0,0,0-.524-2.871,5.962,5.962,0,0,0-.318-1.74,1.488,1.488,0,0,0-2.806.991,2.947,2.947,0,0,1,.03,1.886c-.012.027-.031.049-.041.077a2.982,2.982,0,0,1-1.071,1.438c-.051.038-.115.058-.169.092a2.9,2.9,0,0,1-1.553.473,2.967,2.967,0,0,1-1.1-.22,1.486,1.486,0,0,0-1.989.991,2.987,2.987,0,0,1-3.054,2.171,5.914,5.914,0,0,0,.2-1.455,1.487,1.487,0,0,0-2.974,0,2.968,2.968,0,0,1-.5,1.625,2.762,2.762,0,0,1-.177.228,3.018,3.018,0,0,1-.357.371c-.074.064-.144.133-.223.189a3.01,3.01,0,0,1-3.169.16,1.486,1.486,0,0,0-1.991.5,3.018,3.018,0,0,1-4.484.615,1.488,1.488,0,0,0-1.99,0,3.02,3.02,0,0,1-3.534.3,5.876,5.876,0,0,0,1.215-2,1.486,1.486,0,0,0-2.8-.99,2.975,2.975,0,0,1-5.078.894,1.483,1.483,0,0,0-1.491-.494,3,3,0,0,1-.7.1,2.961,2.961,0,0,1-2.273-1.088,1.527,1.527,0,0,0-.178-.161,5.865,5.865,0,0,0,.623-1.23,1.486,1.486,0,1,0-2.8-.991,2.969,2.969,0,0,1-1.8,1.793l-.012,0c-.092.033-.178.05-.266.074a2.978,2.978,0,0,1-.7.11h-.014l-.062,0a2.928,2.928,0,0,1-.779-.124c-.047-.014-.094-.028-.14-.044a2.978,2.978,0,0,1-1.825-1.827l-.011-.022a2.85,2.85,0,0,1,0-1.941,1.488,1.488,0,1,0-2.806-.991,6,6,0,0,0-.306,1.6,2.958,2.958,0,0,1-.528-.369,1.487,1.487,0,0,0-1.983,2.216,5.929,5.929,0,0,0,3.272,1.474c.021.037.048.069.069.106.1.165.2.325.316.48.1.13.2.251.308.373a5.845,5.845,0,0,0,.517.526c.145.13.293.256.449.371.116.084.233.165.355.241.156.1.317.185.481.268-.059.047-.1.113-.163.155a1.487,1.487,0,0,0,0,2.478,2.952,2.952,0,0,1,.607,4.412,5.9,5.9,0,0,0-2.245-.447,1.487,1.487,0,1,0,0,2.974,2.953,2.953,0,0,1,1.636.5l0,0a2.951,2.951,0,0,1,.523.447c.039.042.072.088.109.132a2.974,2.974,0,0,1,.285.4c.036.062.071.125.1.19a2.8,2.8,0,0,1,.173.444c.02.063.044.123.059.188a2.925,2.925,0,0,1-1.252,3.152,1.489,1.489,0,0,0,0,2.48,2.967,2.967,0,0,1,1.336,2.478,2.912,2.912,0,0,1-.4,1.452,1.487,1.487,0,0,0,.5,1.991,2.96,2.96,0,0,1,1.389,2.5,2.92,2.92,0,0,1-.438,1.527,5.92,5.92,0,0,0-3.528,1.475,1.487,1.487,0,1,0,1.984,2.216,2.972,2.972,0,0,1,1.982-.757c.047,0,.091.012.138.014.022,0,.042.012.064.014a2.987,2.987,0,0,1,2.555,1.844c.013.033.02.069.032.1a2.791,2.791,0,0,1-.034,2.1,1.487,1.487,0,0,0,.99,1.99,2.932,2.932,0,0,1,2.147,3.413,3.073,3.073,0,0,1-.16.538l-.005.022a2.942,2.942,0,0,1-2.7,1.856c-.044-.006-.2-.022-.248-.025a1.441,1.441,0,0,0-1.477,1,2.949,2.949,0,0,1-5.586,0,1.445,1.445,0,0,0-1.477-1,.869.869,0,0,0-.191.025,2.958,2.958,0,0,1-2.918-3.535,3.136,3.136,0,0,1,.163-.543v-.011a2.98,2.98,0,0,1,2.754-1.86,1.487,1.487,0,1,0,0-2.974,5.929,5.929,0,0,0-4.727,2.376,2.927,2.927,0,0,1-.26-4.548,1.488,1.488,0,0,0-.5-2.487,2.926,2.926,0,0,1-1.9-3.329,3.009,3.009,0,0,1,.128-.444c.008-.02.012-.041.02-.061a3.075,3.075,0,0,1,.571-.922l.013-.02a2.955,2.955,0,0,1,2.186-.974,1.487,1.487,0,0,0,0-2.974,5.863,5.863,0,0,0-2.857.763,2.822,2.822,0,0,1-.117-.763,2.936,2.936,0,0,1,.961-2.173,1.487,1.487,0,0,0-.5-2.486,2.977,2.977,0,0,1-1.952-2.777,2.927,2.927,0,0,1,.087-.685c.015-.061.038-.119.056-.179a2.881,2.881,0,0,1,.19-.474c.027-.053.055-.106.085-.157a3.061,3.061,0,0,1,.369-.5l.026-.031a3.045,3.045,0,0,1,.577-.475l.005,0a2.94,2.94,0,0,1,2.571-.294,1.488,1.488,0,1,0,.99-2.806,5.971,5.971,0,0,0-1.982-.338,5.89,5.89,0,0,0-1.459.2c-.005-.068-.028-.134-.028-.2a2.978,2.978,0,0,1,1.952-2.777,1.487,1.487,0,0,0,.5-2.486,2.924,2.924,0,0,1-.186-4.152,1.488,1.488,0,0,0,0-1.99,2.961,2.961,0,0,1-.776-1.979,2.9,2.9,0,0,1,.417-1.481,1.493,1.493,0,0,0,0-1.5,2.9,2.9,0,0,1-.417-1.481,2.824,2.824,0,0,1,.117-.764,5.875,5.875,0,0,0,2.857.764,1.488,1.488,0,0,0,0-2.975,2.954,2.954,0,0,1-2.186-.974l-.012-.02a3.06,3.06,0,0,1-.572-.922c-.008-.019-.012-.041-.019-.061a2.853,2.853,0,0,1-.129-.444,2.933,2.933,0,0,1,2.68-3.5,1.494,1.494,0,0,0,.995-.5,2.927,2.927,0,0,1,2.218-1.021,2.978,2.978,0,0,1,2.974,2.974,1.485,1.485,0,0,0,1.487,1.487,2.914,2.914,0,0,1,1.8.639,5.805,5.805,0,0,0-1.3.876,1.487,1.487,0,0,0,1.984,2.216,3,3,0,0,1,2.091-.739,2.826,2.826,0,0,1,.626.1c.066.016.134.019.2.04a2.982,2.982,0,0,1,1.86,1.845,1.442,1.442,0,0,0,1.477,1,.875.875,0,0,0,.191-.024,2.975,2.975,0,0,1,2.777,1.951,1.487,1.487,0,0,0,2.486.5,3.032,3.032,0,0,1,4.678.428,1.487,1.487,0,0,0,1.991.5,2.916,2.916,0,0,1,3.431.374,1.488,1.488,0,0,0,1.99,0,2.909,2.909,0,0,1,3.432-.374l.014,0a2.961,2.961,0,0,1,.751.587,1.487,1.487,0,0,0,2.216-1.984c-.012-.014-.028-.023-.041-.037a2.807,2.807,0,0,1,1.5-.458c.044.005.2.022.248.024a1.467,1.467,0,0,0,1.477-1,2.9,2.9,0,0,1,3.8-1.809,1.488,1.488,0,0,0,1.992-1.489c0-.039-.02-.152-.026-.192a2.967,2.967,0,0,1,2.918-2.974c.043.006.2.022.248.025a1.489,1.489,0,0,0,1.477-1,2.967,2.967,0,0,1,2.792-2,2.927,2.927,0,0,1,2.218,1.021,1.5,1.5,0,0,0,.995.5,2.895,2.895,0,0,1,2.612,3.729c-.019.067-.034.135-.058.2a3.155,3.155,0,0,1-1.8,1.819,1.487,1.487,0,1,0,.991,2.8,6.086,6.086,0,0,0,.882-.4,2.634,2.634,0,0,1,.049,1.317,2.912,2.912,0,0,1-.112.365l-.044.148a2.97,2.97,0,0,1-.236.463h0a2.833,2.833,0,0,1-.318.42,1.487,1.487,0,0,0,0,1.993,2.966,2.966,0,0,1,.776,1.979,2.921,2.921,0,0,1-.469,1.563,5.9,5.9,0,0,0-2.01-1.223,1.487,1.487,0,0,0-.991,2.8,2.947,2.947,0,0,1,1.651,1.519,3.127,3.127,0,0,1,.207.493,2.821,2.821,0,0,1-.651,2.773,1.484,1.484,0,0,0,0,1.989,2.964,2.964,0,0,1,.775,1.98,2.875,2.875,0,0,1-.109.738,5.849,5.849,0,0,0-.883-.4,1.486,1.486,0,0,0-.99,2.8,2.944,2.944,0,0,1,1.291.938,3.329,3.329,0,0,1,.209.278,3.03,3.03,0,0,1,.3.6c.024.065.038.133.057.2a2.927,2.927,0,0,1,.124.787,2.961,2.961,0,0,1-.094.7,1.484,1.484,0,0,0,.495,1.493,3,3,0,0,1,.976,1.522,6.083,6.083,0,0,0-.881-.4,1.487,1.487,0,0,0-.991,2.8,2.951,2.951,0,0,1,1.639,1.5,3.084,3.084,0,0,1,.217.5,2.978,2.978,0,0,1,.127.806,2.9,2.9,0,0,1-.417,1.481,1.493,1.493,0,0,0,0,1.5,2.84,2.84,0,0,1,0,2.963A1.491,1.491,0,0,0,1131.151,7830.185Z" fill="#1b1464"/>
    </g>
  </g>
</svg>
