<svg xmlns="http://www.w3.org/2000/svg" width="104.844" height="104.84" viewBox="0 0 104.844 104.84">
  <g id="Group_180" data-name="Group 180" transform="translate(-285.144 -7762.109)">
    <g id="Group_179" data-name="Group 179">
      <g id="Group_178" data-name="Group 178">
        <path id="Path_774" data-name="Path 774" d="M389.988,7811.033c0-38.914-22.737-41.937-29.706-41.937a25.022,25.022,0,0,0-15.22,5.551c-.959-3.12-1.643-6.174-2-7.929a5.226,5.226,0,0,0-3.756-4,23.19,23.19,0,0,0-9.672-.193,5.281,5.281,0,0,0-4.176,5.63c.792,8.691,5.435,18.791,9.19,25.735a44.4,44.4,0,0,1,3.632,8.752,23.6,23.6,0,0,1,1.037,6.641,24.411,24.411,0,0,1-.934,6.658c-.011.031-.035.054-.044.086a23.6,23.6,0,0,1-4.815,8.92c-.094.106-.186.217-.281.321-.186.2-.377.394-.567.587-.231.231-.464.458-.7.672-.114.1-.229.208-.345.309a15.533,15.533,0,0,1-3.88,2.489l-.022.009a12.014,12.014,0,0,1-1.269.463l-.2.059a10.445,10.445,0,0,1-1.106.248c-.089.014-.177.036-.266.048a9.12,9.12,0,0,1-1.3.1,12.758,12.758,0,0,1-5.8-1.4,21.784,21.784,0,0,0-9.923-2.1,29.692,29.692,0,0,0-21.5,8.877,5.282,5.282,0,0,0-1.212,3.355v6.989a5.138,5.138,0,0,0,2.894,4.582,5.337,5.337,0,0,0,5.744-.809,24.851,24.851,0,0,1,5.217-3.26,21.392,21.392,0,0,1,8.861-2.26c5.97,0,7.974,3.6,10.746,8.594,3.5,6.291,7.849,14.122,22.455,14.122q1.424,0,2.809-.052c26.822-.937,42.048-15.484,45.4-43.312.025-.2.042-.4.066-.6.082-.725.165-1.451.232-2.194.073-.812.131-1.639.185-2.47.012-.2.031-.385.042-.582l.006-.072,0-.018Q389.986,7814.444,389.988,7811.033Zm-4.063,10.871c-.1.943-.22,1.865-.349,2.776q-.205,1.429-.456,2.807-.176.972-.374,1.919-.36,1.7-.8,3.307c-.124.461-.245.925-.378,1.377-.219.743-.448,1.476-.691,2.191-.052.151-.11.294-.162.444q-.7,2-1.535,3.861c-.137.306-.283.6-.426.9q-.738,1.548-1.569,2.991-.283.488-.578.963-.795,1.288-1.671,2.485c-.261.355-.523.709-.794,1.053q-.722.916-1.5,1.774c-.419.466-.845.923-1.286,1.363-.377.377-.76.747-1.154,1.1q-.942.856-1.944,1.643c-.366.286-.743.56-1.121.832-.743.533-1.5,1.051-2.289,1.529-.32.194-.654.371-.981.556-.759.427-1.535.835-2.336,1.214-.325.155-.651.307-.982.454q-1.379.606-2.838,1.117c-.27.1-.536.2-.81.289-1.09.36-2.217.677-3.371.961-.278.069-.556.138-.839.2q-1.787.408-3.672.7c-.256.039-.515.074-.774.111-1.318.184-2.665.335-4.054.436-.184.013-.374.02-.56.032-1.489.1-3.009.155-4.579.155-12.549,0-16.032-6.266-19.4-12.326-2.839-5.109-5.774-10.39-13.8-10.39a26.134,26.134,0,0,0-12.913,3.969,26.976,26.976,0,0,0-3.416,2.371,1.942,1.942,0,0,1-.952.439,1.882,1.882,0,0,1-1.066-.124,1.476,1.476,0,0,1-.874-1.413v-6.99a1.751,1.751,0,0,1,.41-1.126,25.9,25.9,0,0,1,18.811-7.611,18.513,18.513,0,0,1,8.535,1.811,16.211,16.211,0,0,0,7.192,1.684,12.784,12.784,0,0,0,1.64-.117c.2-.025.4-.061.6-.1q.494-.086.983-.209c.249-.061.5-.12.745-.2.22-.068.437-.153.656-.232a15.839,15.839,0,0,0,1.8-.765c.1-.051.2-.1.3-.152.374-.2.742-.409,1.107-.635.067-.042.133-.086.2-.129a20.439,20.439,0,0,0,3.235-2.582c.091-.089.184-.176.274-.266q.437-.441.855-.909c.138-.154.272-.314.407-.474.251-.3.5-.591.742-.9q.506-.656.976-1.357c.166-.248.319-.507.478-.762.192-.309.382-.619.563-.94q.225-.4.437-.8c.176-.336.343-.679.506-1.025.126-.267.256-.531.374-.8.215-.5.414-1,.6-1.515.027-.074.06-.145.087-.219a17.27,17.27,0,0,1,3.495,1.97,10.322,10.322,0,0,0,13.779,0,10.948,10.948,0,0,1,14.181,0,11.731,11.731,0,0,0,6.889,2.636,11.214,11.214,0,0,0,6.532-2.394C386,7821.219,385.962,7821.56,385.925,7821.9Zm.425-5.373c-.668.392-1.3.794-1.9,1.2a7,7,0,0,1-9.887,0,14.37,14.37,0,0,0-18.08,0,7,7,0,0,1-9.881,0,19.755,19.755,0,0,0-4.489-2.433,27.508,27.508,0,0,0,.694-6.011,27,27,0,0,0-1.174-7.608,47.845,47.845,0,0,0-3.916-9.447c-3.6-6.655-8.046-16.29-8.783-24.39a1.781,1.781,0,0,1,1.42-1.893,19.481,19.481,0,0,1,8.017.142,1.749,1.749,0,0,1,1.262,1.333,84.874,84.874,0,0,0,2.956,10.875,1.749,1.749,0,0,0,2.871.655,21.76,21.76,0,0,1,14.82-6.362c16.413,0,26.211,14.372,26.211,38.443C386.493,7812.919,386.44,7814.746,386.35,7816.531Z" fill="#1b1464"/>
        <circle id="Ellipse_34" data-name="Ellipse 34" cx="1.747" cy="1.747" r="1.747" transform="translate(339.314 7830.254)" fill="#1b1464"/>
        <circle id="Ellipse_35" data-name="Ellipse 35" cx="1.747" cy="1.747" r="1.747" transform="translate(369.019 7830.254)" fill="#1b1464"/>
        <circle id="Ellipse_36" data-name="Ellipse 36" cx="1.747" cy="1.747" r="1.747" transform="translate(355.04 7835.497)" fill="#1b1464"/>
        <circle id="Ellipse_37" data-name="Ellipse 37" cx="1.747" cy="1.747" r="1.747" transform="translate(365.525 7845.981)" fill="#1b1464"/>
        <circle id="Ellipse_38" data-name="Ellipse 38" cx="1.747" cy="1.747" r="1.747" transform="translate(341.061 7842.486)" fill="#1b1464"/>
        <circle id="Ellipse_39" data-name="Ellipse 39" cx="1.747" cy="1.747" r="1.747" transform="translate(351.546 7852.971)" fill="#1b1464"/>
        <circle id="Ellipse_40" data-name="Ellipse 40" cx="1.747" cy="1.747" r="1.747" transform="translate(327.082 7840.739)" fill="#1b1464"/>
        <circle id="Ellipse_41" data-name="Ellipse 41" cx="1.747" cy="1.747" r="1.747" transform="translate(334.072 7852.971)" fill="#1b1464"/>
      </g>
    </g>
  </g>
</svg>
