<svg xmlns="http://www.w3.org/2000/svg" width="1882.766" height="501.816" viewBox="0 0 1882.766 501.816">
  <g id="Group_191" data-name="Group 191" transform="translate(131.26 -11123.099)">
    <path id="Path_841" data-name="Path 841" d="M-108.847,11624.859s-50.824-454.871,152.471-444.706,366.326,191.217,525.59,86.714,546.581-247.248,553.948-28.268c13.677,406.589,523.349,160.941,523.349,160.941" fill="none" stroke="#707070" stroke-miterlimit="10" stroke-width="1"/>
    <path id="Path_842" data-name="Path 842" d="M-108.847,11621.4s-51.793-447.907,151.5-437.742,361.725,188.221,520.989,83.719,554.949-246.8,562.315-27.818c13.677,406.588,522.881,161.323,522.881,161.323" fill="none" stroke="#707070" stroke-miterlimit="10" stroke-width="1"/>
    <path id="Path_843" data-name="Path 843" d="M-108.847,11617.933s-52.762-440.941,150.532-430.777,357.123,185.225,516.387,80.723,563.316-246.35,570.682-27.369c13.677,406.588,522.414,161.705,522.414,161.705" fill="none" stroke="#707070" stroke-miterlimit="10" stroke-width="1"/>
    <path id="Path_844" data-name="Path 844" d="M-108.847,11614.47s-53.732-433.978,149.562-423.813,352.522,182.229,511.786,77.727,571.683-245.9,579.049-26.919c13.677,406.588,521.946,162.087,521.946,162.087" fill="none" stroke="#707070" stroke-miterlimit="10" stroke-width="1"/>
    <path id="Path_845" data-name="Path 845" d="M-108.847,11611.007s-54.7-427.014,148.593-416.849,347.92,179.232,507.184,74.729,580.05-245.451,587.416-26.47c13.677,406.588,521.479,162.469,521.479,162.469" fill="none" stroke="#707070" stroke-miterlimit="10" stroke-width="1"/>
    <path id="Path_846" data-name="Path 846" d="M-108.847,11607.545s-55.671-420.051,147.623-409.886,343.319,176.237,502.583,71.734,588.417-245,595.783-26.021c13.677,406.588,521.011,162.851,521.011,162.851" fill="none" stroke="#707070" stroke-miterlimit="10" stroke-width="1"/>
    <path id="Path_847" data-name="Path 847" d="M-108.847,11604.082S-165.487,11191,37.807,11201.16s338.717,173.242,497.98,68.739,596.785-244.554,604.151-25.572c13.678,406.588,520.544,163.232,520.544,163.232" fill="none" stroke="#707070" stroke-miterlimit="10" stroke-width="1"/>
    <path id="Path_848" data-name="Path 848" d="M-108.847,11600.619s-57.609-406.123,145.685-395.958,334.115,170.246,493.378,65.743,605.152-244.1,612.519-25.122c13.677,406.588,520.075,163.614,520.075,163.614" fill="none" stroke="#707070" stroke-miterlimit="10" stroke-width="1"/>
    <path id="Path_849" data-name="Path 849" d="M-108.847,11597.156S-167.426,11198,35.868,11208.162s329.514,167.25,488.777,62.748,613.52-243.655,620.886-24.674c13.677,406.588,519.608,164,519.608,164" fill="none" stroke="#707070" stroke-miterlimit="10" stroke-width="1"/>
    <path id="Path_850" data-name="Path 850" d="M-108.847,11593.693S-168.4,11201.5,34.9,11211.664s324.912,164.253,484.175,59.751,621.887-243.205,629.253-24.224c13.677,406.588,519.14,164.378,519.14,164.378" fill="none" stroke="#707070" stroke-miterlimit="10" stroke-width="1"/>
    <path id="Path_851" data-name="Path 851" d="M-108.847,11590.23s-60.518-385.23,142.776-375.065,320.311,161.258,479.574,56.755,630.254-242.756,637.62-23.775c13.677,406.59,518.673,164.762,518.673,164.762" fill="none" stroke="#707070" stroke-miterlimit="10" stroke-width="1"/>
    <path id="Path_852" data-name="Path 852" d="M-108.847,11586.768s-61.487-378.267,141.807-368.1,315.709,158.262,474.972,53.76,638.621-242.307,645.987-23.326c13.677,406.589,518.205,165.143,518.205,165.143" fill="none" stroke="#707070" stroke-miterlimit="10" stroke-width="1"/>
    <path id="Path_853" data-name="Path 853" d="M-108.847,11583.3S-171.3,11212,31.991,11222.167s311.106,155.266,470.37,50.764,646.988-241.857,654.354-22.877c13.677,406.589,517.738,165.525,517.738,165.525" fill="none" stroke="#707070" stroke-miterlimit="10" stroke-width="1"/>
    <path id="Path_854" data-name="Path 854" d="M-108.847,11579.842s-63.426-364.338,139.868-354.174,306.505,152.271,465.769,47.768,655.355-241.407,662.722-22.427c13.677,406.588,517.269,165.906,517.269,165.906" fill="none" stroke="#707070" stroke-miterlimit="10" stroke-width="1"/>
    <path id="Path_855" data-name="Path 855" d="M-108.847,11576.379s-64.4-357.374,138.9-347.21,301.9,149.275,461.167,44.772,663.722-240.959,671.089-21.979c13.677,406.589,516.8,166.289,516.8,166.289" fill="none" stroke="#707070" stroke-miterlimit="10" stroke-width="1"/>
    <path id="Path_856" data-name="Path 856" d="M-108.847,11572.916s-65.365-350.41,137.929-340.245,297.3,146.278,456.566,41.776,672.09-240.511,679.456-21.529c13.677,406.588,516.335,166.67,516.335,166.67" fill="none" stroke="#707070" stroke-miterlimit="10" stroke-width="1"/>
    <path id="Path_857" data-name="Path 857" d="M-108.847,11569.453s-66.334-343.446,136.96-333.281,292.7,143.283,451.964,38.78,680.457-240.062,687.823-21.08c13.677,406.589,515.867,167.053,515.867,167.053" fill="none" stroke="#707070" stroke-miterlimit="10" stroke-width="1"/>
    <path id="Path_858" data-name="Path 858" d="M-108.847,11565.991s-67.3-336.483,135.991-326.318,288.1,140.287,447.362,35.784,688.824-239.611,696.19-20.63c13.677,406.588,515.4,167.434,515.4,167.434" fill="none" stroke="#707070" stroke-miterlimit="10" stroke-width="1"/>
    <path id="Path_859" data-name="Path 859" d="M-108.847,11562.528s-68.273-329.52,135.021-319.354,283.5,137.291,442.761,32.789,697.191-239.163,704.557-20.181c13.677,406.588,514.932,167.815,514.932,167.815" fill="none" stroke="#707070" stroke-miterlimit="10" stroke-width="1"/>
    <path id="Path_860" data-name="Path 860" d="M-108.847,11559.065s-69.242-322.555,134.052-312.391,278.9,134.295,438.159,29.793,705.558-238.713,712.924-19.731c13.677,406.588,514.465,168.2,514.465,168.2" fill="none" stroke="#707070" stroke-miterlimit="10" stroke-width="1"/>
    <path id="Path_861" data-name="Path 861" d="M-108.847,11555.6s-70.212-315.59,133.082-305.426,274.294,131.3,433.558,26.8,713.925-238.264,721.292-19.281c13.677,406.588,514,168.58,514,168.58" fill="none" stroke="#707070" stroke-miterlimit="10" stroke-width="1"/>
    <path id="Path_862" data-name="Path 862" d="M-108.847,11552.139s-71.181-308.626,132.113-298.461,269.692,128.3,428.955,23.8,722.294-237.814,729.66-18.834c13.677,406.589,513.529,168.963,513.529,168.963" fill="none" stroke="#707070" stroke-miterlimit="10" stroke-width="1"/>
    <path id="Path_863" data-name="Path 863" d="M-108.847,11548.676S-181,11247.014,22.3,11257.179s265.091,125.308,424.354,20.806,730.661-237.366,738.027-18.385c13.677,406.589,513.061,169.345,513.061,169.345" fill="none" stroke="#707070" stroke-miterlimit="10" stroke-width="1"/>
    <path id="Path_864" data-name="Path 864" d="M-108.847,11545.213s-73.12-294.7,130.174-284.533,260.489,122.313,419.752,17.81,739.028-236.916,746.394-17.936c13.677,406.588,512.594,169.727,512.594,169.727" fill="none" stroke="#707070" stroke-miterlimit="10" stroke-width="1"/>
    <path id="Path_865" data-name="Path 865" d="M-108.847,11541.751s-74.089-287.735,129.2-277.57,255.887,119.316,415.15,14.813,747.395-236.466,754.761-17.485c13.677,406.588,512.126,170.107,512.126,170.107" fill="none" stroke="#707070" stroke-miterlimit="10" stroke-width="1"/>
    <path id="Path_866" data-name="Path 866" d="M-108.847,11538.288s-75.059-280.771,128.235-270.606S270.674,11384,429.937,11279.5s755.762-236.018,763.128-17.037c13.677,406.588,511.659,170.49,511.659,170.49" fill="none" stroke="#707070" stroke-miterlimit="10" stroke-width="1"/>
    <path id="Path_867" data-name="Path 867" d="M-108.847,11534.825s-76.028-273.807,127.266-263.642S265.1,11384.508,424.366,11280s764.129-235.568,771.495-16.587c13.677,406.588,511.191,170.871,511.191,170.871" fill="none" stroke="#707070" stroke-miterlimit="10" stroke-width="1"/>
    <path id="Path_868" data-name="Path 868" d="M-108.847,11531.362s-77-266.843,126.3-256.678,242.082,110.328,401.346,5.825,772.5-235.119,779.863-16.138c13.677,406.589,510.723,171.254,510.723,171.254" fill="none" stroke="#707070" stroke-miterlimit="10" stroke-width="1"/>
    <path id="Path_869" data-name="Path 869" d="M-108.847,11527.9s-77.967-259.878,125.327-249.714,237.48,107.332,396.744,2.83,780.864-234.67,788.23-15.688c13.677,406.588,510.255,171.635,510.255,171.635" fill="none" stroke="#707070" stroke-miterlimit="10" stroke-width="1"/>
    <path id="Path_870" data-name="Path 870" d="M-108.847,11524.436s-78.937-252.913,124.358-242.749,232.878,104.337,392.142-.165,789.231-234.222,796.6-15.24c13.677,406.589,509.788,172.018,509.788,172.018" fill="none" stroke="#707070" stroke-miterlimit="10" stroke-width="1"/>
    <path id="Path_871" data-name="Path 871" d="M-108.847,11520.974s-79.906-245.949,123.388-235.785,228.277,101.341,387.541-3.162,797.6-233.771,804.964-14.79c13.677,406.588,509.32,172.4,509.32,172.4" fill="none" stroke="#707070" stroke-miterlimit="10" stroke-width="1"/>
    <path id="Path_872" data-name="Path 872" d="M-108.847,11517.511s-80.875-238.985,122.419-228.821,223.675,98.345,382.939-6.157,805.965-233.323,813.331-14.342c13.677,406.589,508.853,172.781,508.853,172.781" fill="none" stroke="#707070" stroke-miterlimit="10" stroke-width="1"/>
    <path id="Path_873" data-name="Path 873" d="M-108.847,11514.048s-81.845-232.021,121.449-221.856,219.074,95.348,378.338-9.154,814.332-232.873,821.7-13.893c13.677,406.589,508.385,173.163,508.385,173.163" fill="none" stroke="#707070" stroke-miterlimit="10" stroke-width="1"/>
    <path id="Path_874" data-name="Path 874" d="M-108.847,11510.585s-82.814-225.058,120.48-214.893,214.472,92.353,373.736-12.15,822.7-232.424,830.065-13.443c13.677,406.59,507.918,173.546,507.918,173.546" fill="none" stroke="#707070" stroke-miterlimit="10" stroke-width="1"/>
    <path id="Path_875" data-name="Path 875" d="M-108.847,11507.122s-83.784-218.094,119.511-207.929,209.87,89.356,369.134-15.146,831.066-231.974,838.433-12.993c13.677,406.588,507.449,173.928,507.449,173.928" fill="none" stroke="#707070" stroke-miterlimit="10" stroke-width="1"/>
    <path id="Path_876" data-name="Path 876" d="M-108.847,11503.659s-84.753-211.13,118.541-200.965,205.269,86.36,364.533-18.142,839.434-231.525,846.8-12.544c13.677,406.588,506.982,174.31,506.982,174.31" fill="none" stroke="#707070" stroke-miterlimit="10" stroke-width="1"/>
    <path id="Path_877" data-name="Path 877" d="M-108.847,11500.2s-85.722-204.166,117.572-194,200.667,83.365,359.93-21.138,847.8-231.075,855.168-12.095c13.677,406.588,506.514,174.691,506.514,174.691" fill="none" stroke="#707070" stroke-miterlimit="10" stroke-width="1"/>
    <path id="Path_878" data-name="Path 878" d="M-108.847,11496.734s-86.692-197.2,116.6-187.038,196.066,80.37,355.329-24.133,856.169-230.628,863.535-11.646c13.677,406.588,506.047,175.073,506.047,175.073" fill="none" stroke="#707070" stroke-miterlimit="10" stroke-width="1"/>
    <path id="Path_879" data-name="Path 879" d="M-108.847,11493.271s-87.661-190.238,115.633-180.073,191.464,77.373,350.727-27.129,864.536-230.179,871.9-11.2c13.677,406.588,505.579,175.455,505.579,175.455" fill="none" stroke="#707070" stroke-miterlimit="10" stroke-width="1"/>
    <path id="Path_880" data-name="Path 880" d="M-108.847,11489.808s-88.631-183.273,114.663-173.108,186.863,74.377,346.126-30.125,872.9-229.729,880.269-10.747c13.677,406.588,505.112,175.837,505.112,175.837" fill="none" stroke="#707070" stroke-miterlimit="10" stroke-width="1"/>
    <path id="Path_881" data-name="Path 881" d="M-108.847,11486.345s-89.6-176.31,113.694-166.145,182.261,71.382,341.524-33.121,881.27-229.279,888.636-10.3c13.678,406.588,504.645,176.219,504.645,176.219" fill="none" stroke="#707070" stroke-miterlimit="10" stroke-width="1"/>
    <path id="Path_882" data-name="Path 882" d="M-108.847,11482.882s-90.569-169.346,112.725-159.181,177.658,68.386,336.922-36.116,889.637-228.83,897-9.849c13.677,406.588,504.176,176.6,504.176,176.6" fill="none" stroke="#707070" stroke-miterlimit="10" stroke-width="1"/>
    <path id="Path_883" data-name="Path 883" d="M-108.847,11479.419s-91.539-162.381,111.755-152.217,173.057,65.39,332.321-39.112,898.005-228.381,905.371-9.4c13.677,406.589,503.709,176.982,503.709,176.982" fill="none" stroke="#707070" stroke-miterlimit="10" stroke-width="1"/>
    <path id="Path_884" data-name="Path 884" d="M-108.847,11475.957s-92.508-155.418,110.786-145.253,168.455,62.394,327.719-42.109,906.372-227.931,913.738-8.95c13.677,406.589,503.241,177.364,503.241,177.364" fill="none" stroke="#707070" stroke-miterlimit="10" stroke-width="1"/>
    <path id="Path_885" data-name="Path 885" d="M-108.847,11472.494S-202.325,11324.04.969,11334.205s163.854,59.4,323.118-45.105,914.739-227.481,922.105-8.5c13.677,406.59,502.774,177.747,502.774,177.747" fill="none" stroke="#707070" stroke-miterlimit="10" stroke-width="1"/>
    <path id="Path_886" data-name="Path 886" d="M-108.847,11469.031S-203.294,11327.541,0,11337.706s159.252,56.4,318.516-48.1,923.106-227.033,930.472-8.053c13.677,406.588,502.306,178.128,502.306,178.128" fill="none" stroke="#707070" stroke-miterlimit="10" stroke-width="1"/>
  </g>
</svg>
