<svg xmlns="http://www.w3.org/2000/svg" width="101.462" height="101.462" viewBox="0 0 101.462 101.462">
  <g id="Group_177" data-name="Group 177" transform="translate(-290.273 -7346.384)">
    <g id="Group_176" data-name="Group 176">
      <path id="Path_773" data-name="Path 773" d="M388.267,7389.816a58.1,58.1,0,0,0-3.474-6.986l-3.41-6.817a52.721,52.721,0,0,0-13.955-15.728,24.6,24.6,0,0,0-14.587-5.446,12.3,12.3,0,0,0-5.073.994v-4.376a5.078,5.078,0,0,0-5.073-5.073h-3.382a5.079,5.079,0,0,0-5.073,5.073v4.376a12.3,12.3,0,0,0-5.073-.994,24.6,24.6,0,0,0-14.587,5.446,52.729,52.729,0,0,0-13.982,15.781l-3.344,6.691a58.863,58.863,0,0,0-3.511,7.058c-1.68,5.036-3.47,12.65-3.47,39.429,0,9.26,5.229,18.6,16.911,18.6.452,0,7.688-.005,8.124-.013a24.819,24.819,0,0,0,22.085-14.348A53.9,53.9,0,0,0,341,7421.73a53.96,53.96,0,0,0,3.612,11.755,24.818,24.818,0,0,0,22.087,14.348c.433.008,7.669.013,8.122.013,11.682,0,16.91-9.342,16.91-18.6C391.735,7402.465,389.945,7394.851,388.267,7389.816Zm-48.98,13.884a30.4,30.4,0,0,1-9.7-4.63,33.7,33.7,0,0,0-6.645-3.559,13.605,13.605,0,0,0-8.006-.431,13.173,13.173,0,0,1-2.675.344,5.88,5.88,0,0,1-3.878-1.2,1.691,1.691,0,0,0-2.391,2.391,7.538,7.538,0,0,0,2.377,1.458,13.338,13.338,0,0,0-1,1.664,1.691,1.691,0,0,0,3.024,1.514,6.594,6.594,0,0,1,1.925-2.451l.015,0a16.331,16.331,0,0,0,3.268-.4,10.307,10.307,0,0,1,6.274.32,31.787,31.787,0,0,1,5.917,3.216c.809.508,1.645,1.026,2.5,1.535a10.957,10.957,0,0,0-.706,1.1c-.8,1.382-1.551,2.687-3.79,2.687a5.5,5.5,0,0,1-4.107-1.566,6.4,6.4,0,0,0-4.348-1.816,1.691,1.691,0,0,0,0,3.382c.88,0,1.313.323,2.21,1.055.242.2.511.412.8.625a18.59,18.59,0,0,0-2.516,2.2,1.691,1.691,0,1,0,2.391,2.391c1.614-1.613,2.887-2.886,5.569-2.886a7.327,7.327,0,0,0,6.719-4.378c.143-.246.326-.563.456-.745a1.675,1.675,0,0,0,.569-.276,19.393,19.393,0,0,0,5.685,1.885c0,.113-.013.219-.018.332-5.19,1.038-10.313,6.148-12.916,8.75-5.609,5.611-10.2,7.089-14.882,4.791a1.586,1.586,0,0,0-.226-.1,6.184,6.184,0,0,0-.861-.329,8.478,8.478,0,0,1-1.616-2.236,1.691,1.691,0,0,0-3.024,1.514c.106.212.284.538.5.9a10.625,10.625,0,0,0-3.567,2.223,1.691,1.691,0,1,0,2.391,2.391,5.606,5.606,0,0,1,4.09-1.6,3.449,3.449,0,0,0,.926.314,12.58,12.58,0,0,0,11.582-.172,20.486,20.486,0,0,0-.884,5.332,5.745,5.745,0,0,1-2.447,5.251,1.692,1.692,0,0,0,1.513,3.026,8.986,8.986,0,0,0,4.316-8.277,16.794,16.794,0,0,1,2.887-8.951,1.666,1.666,0,0,0,.172-.258c.5-.452,1.009-.923,1.519-1.433,2.03-2.03,6.383-6.373,10.333-7.612a62.958,62.958,0,0,1-4.693,21.1,21.417,21.417,0,0,1-19.073,12.359c-.429.009-7.606.014-8.055.014-9.986,0-13.528-8.2-13.528-15.22,0-26.272,1.7-33.576,3.3-38.359a55.849,55.849,0,0,1,3.289-6.543l3.354-6.711a49.567,49.567,0,0,1,13.1-14.711,21.073,21.073,0,0,1,12.469-4.7,7.033,7.033,0,0,1,5.121,1.6,4.226,4.226,0,0,1,.354.434,4.9,4.9,0,0,1,.369.563c.022.041.045.082.066.123a5.739,5.739,0,0,1,.281.624l.042.12a7.023,7.023,0,0,1,.205.677c.008.035.015.07.024.1.055.237.1.477.139.719l.012.087q.054.372.086.744l0,.068c.021.253.035.5.044.751v.039c.019.521.018,1.024.017,1.484v.317a117.694,117.694,0,0,0,2,22.259,84.792,84.792,0,0,1,1.3,10.241c-4.792-3.264-8.371-8.315-8.371-12.207a19.244,19.244,0,0,0-3.129-8.913,13.145,13.145,0,0,1-1.944-4.616c0-.951.367-1.357,1.2-2.186a6.03,6.03,0,0,0,2.186-4.578,1.691,1.691,0,0,0-3.382,0c0,.951-.366,1.357-1.2,2.187-.106.1-.217.217-.329.332a9.209,9.209,0,0,0-2.793-2.341,1.691,1.691,0,0,0-1.522,3.021,4.609,4.609,0,0,1,2.457,3.565,14.315,14.315,0,0,0,2.363,6.247l.023.042a13.071,13.071,0,0,0-1.339.2,2.785,2.785,0,0,1-3.233-.919,10.477,10.477,0,0,0-7.96-3.878,1.691,1.691,0,0,0,0,3.382c2.682,0,3.955,1.273,5.569,2.887a6.039,6.039,0,0,0,6.253,1.851,3.68,3.68,0,0,1,2.542.12,9.6,9.6,0,0,1,.855,3.6c0,5.541,5.121,12.485,11.82,16.219C339.3,7403.36,339.289,7403.527,339.287,7403.7Zm3.411-38.206c0,.283,0,.553,0,.809v.373c0,1.076-.014,2.1-.035,3.086,0,.112,0,.228-.007.339-.023.928-.056,1.814-.1,2.671-.007.145-.013.291-.02.434q-.061,1.239-.144,2.385c-.011.147-.022.291-.033.436-.056.751-.118,1.48-.186,2.179-.011.125-.024.245-.037.369-.07.7-.144,1.39-.223,2.049-.01.081-.021.158-.031.238-.075.613-.153,1.206-.233,1.785-.015.1-.029.212-.044.316-.083.582-.168,1.146-.254,1.7-.023.148-.046.3-.069.444q-.12.757-.242,1.485l-.038.23-.038-.23q-.121-.729-.241-1.483c-.024-.15-.047-.3-.071-.455-.086-.551-.17-1.112-.253-1.691-.015-.1-.029-.212-.043-.316-.081-.579-.159-1.172-.234-1.785-.01-.08-.02-.157-.03-.238-.079-.659-.153-1.345-.224-2.049-.012-.124-.025-.244-.037-.369-.068-.7-.129-1.428-.186-2.179-.011-.145-.022-.289-.032-.436q-.082-1.146-.144-2.38c-.007-.146-.014-.3-.021-.444-.039-.856-.072-1.74-.1-2.666,0-.111,0-.227-.006-.339-.022-.989-.036-2.01-.036-3.086v-.373c0-.256,0-.526,0-.809,0-.111-.006-.227-.008-.342-.005-.219-.01-.438-.021-.668-.006-.122-.015-.247-.024-.372-.015-.236-.034-.473-.059-.716-.014-.13-.03-.259-.047-.39-.031-.242-.071-.484-.116-.729-.026-.143-.052-.283-.083-.427-.05-.228-.113-.455-.178-.683-.045-.161-.087-.321-.141-.481-.062-.185-.142-.367-.217-.55a8.41,8.41,0,0,0-.795-1.541v-7.138a1.691,1.691,0,0,1,1.691-1.691H342.7a1.691,1.691,0,0,1,1.691,1.691v7.138a8.41,8.41,0,0,0-.795,1.541c-.075.183-.155.364-.217.549-.054.161-.1.321-.141.482-.065.228-.128.455-.178.683-.031.143-.058.284-.083.426-.045.246-.085.488-.116.729-.017.132-.033.261-.047.39-.025.243-.044.48-.059.716-.009.126-.018.25-.024.373-.011.229-.016.449-.021.668C342.7,7365.267,342.7,7365.383,342.7,7365.494Zm32.127,78.97c-.449,0-7.626,0-8.052-.014a21.414,21.414,0,0,1-19.075-12.359,62.93,62.93,0,0,1-4.694-21.1c3.95,1.239,8.3,5.582,10.333,7.613.51.509,1.016.98,1.52,1.432a1.6,1.6,0,0,0,.171.259,16.782,16.782,0,0,1,2.887,8.95,8.985,8.985,0,0,0,4.317,8.277,1.677,1.677,0,0,0,2.244-.739,1.7,1.7,0,0,0-.71-2.274,4.965,4.965,0,0,1-1.863-2.255,12.566,12.566,0,0,0,2.776.374,1.691,1.691,0,1,0,.005-3.383,7.733,7.733,0,0,1-3.434-.85,21.9,21.9,0,0,0-.837-4.482,12.582,12.582,0,0,0,11.583.172,3.459,3.459,0,0,0,.936-.319,5.587,5.587,0,0,1,4.08,1.6,1.691,1.691,0,0,0,2.391-2.391,10.6,10.6,0,0,0-3.565-2.226c.217-.36.394-.684.5-.9a1.691,1.691,0,0,0-3.024-1.514,8.517,8.517,0,0,1-1.614,2.234,6.194,6.194,0,0,0-.932.359l-.031.013c-.017.009-.033.013-.05.021-4.705,2.359-9.318.885-14.959-4.756-2.6-2.6-7.726-7.712-12.916-8.751,0-.112-.013-.218-.018-.331a19.389,19.389,0,0,0,5.686-1.885,1.679,1.679,0,0,0,.568.276c.131.182.314.5.456.745a7.33,7.33,0,0,0,6.72,4.378c2.681,0,3.955,1.273,5.568,2.886a1.691,1.691,0,0,0,2.391-2.391,18.4,18.4,0,0,0-2.516-2.2c.29-.214.559-.427.8-.625.9-.732,1.33-1.055,2.21-1.055a1.691,1.691,0,0,0,0-3.382,6.4,6.4,0,0,0-4.349,1.816,5.506,5.506,0,0,1-4.107,1.566c-2.239,0-2.994-1.305-3.79-2.687a10.784,10.784,0,0,0-.705-1.1c.85-.509,1.687-1.028,2.5-1.536a31.782,31.782,0,0,1,5.917-3.215,10.29,10.29,0,0,1,6.273-.32,16.474,16.474,0,0,0,3.268.4,6.423,6.423,0,0,1,1.941,2.454,1.691,1.691,0,0,0,3.024-1.514,13.338,13.338,0,0,0-1-1.664,7.522,7.522,0,0,0,2.376-1.458,1.679,1.679,0,0,0,.01-2.361,1.7,1.7,0,0,0-2.381-.05,5.854,5.854,0,0,1-3.9,1.216,13.174,13.174,0,0,1-2.676-.344,13.605,13.605,0,0,0-8.006.431,33.7,33.7,0,0,0-6.645,3.559,30.4,30.4,0,0,1-9.7,4.63c0-.173-.007-.34-.008-.513,6.7-3.734,11.819-10.678,11.819-16.218a9.625,9.625,0,0,1,.855-3.6,3.687,3.687,0,0,1,2.542-.12,6.036,6.036,0,0,0,6.254-1.851c1.614-1.613,2.887-2.887,5.569-2.887a1.691,1.691,0,0,0,0-3.382,10.477,10.477,0,0,0-7.96,3.878,2.788,2.788,0,0,1-3.233.92,12.786,12.786,0,0,0-1.34-.2l.023-.042a14.32,14.32,0,0,0,2.364-6.248,4.607,4.607,0,0,1,2.447-3.56,1.692,1.692,0,0,0-1.513-3.026,9.221,9.221,0,0,0-2.793,2.341c-.112-.115-.223-.227-.328-.332-.829-.829-1.2-1.236-1.2-2.187a1.691,1.691,0,0,0-3.382,0,6.031,6.031,0,0,0,2.187,4.578c.829.829,1.2,1.235,1.2,2.186a13.146,13.146,0,0,1-1.944,4.616,19.244,19.244,0,0,0-3.129,8.913c0,3.892-3.579,8.943-8.372,12.207a84.733,84.733,0,0,1,1.3-10.24,117.709,117.709,0,0,0,2-22.26v-.317c0-.452,0-.946.016-1.456l0-.069c.009-.245.024-.5.044-.745l0-.073c.021-.247.051-.5.086-.742l.012-.088c.037-.242.084-.481.14-.718.008-.035.015-.071.024-.106a7.036,7.036,0,0,1,.2-.676c.015-.04.029-.081.044-.121a5.438,5.438,0,0,1,.279-.622l.067-.125a4.807,4.807,0,0,1,.369-.562,4.256,4.256,0,0,1,.353-.435,7.035,7.035,0,0,1,5.121-1.6,21.076,21.076,0,0,1,12.47,4.7,49.524,49.524,0,0,1,13.074,14.658l3.42,6.837a55.035,55.035,0,0,1,3.253,6.47c1.594,4.782,3.295,12.086,3.295,38.359C388.353,7436.265,384.811,7444.464,374.825,7444.464Z" fill="#1b1464"/>
    </g>
  </g>
</svg>
