<svg id="Layer_1" data-name="Layer 1" xmlns="http://www.w3.org/2000/svg" viewBox="0 0 77.81 73.92"><defs><style>.cls-1{fill:#010101;}.cls-2{fill:#70ccd8;}</style></defs><title>icon6</title><path class="cls-1" d="M691.92,681.87h-8.13V678a5.2,5.2,0,0,0-5.2-5.19h-6.47a2.61,2.61,0,0,1-2.6-2.6v-1.29h13.74a3.13,3.13,0,0,0,3.12-3.13V637a3.13,3.13,0,0,0-3.12-3.13H641.52A3.13,3.13,0,0,0,638.4,637v28.76a3.13,3.13,0,0,0,3.12,3.13h15l0,23.34a2.6,2.6,0,0,1-5.2,0V678a5.21,5.21,0,0,0-5.2-5.19H634.51a5.19,5.19,0,0,0-5.19,5.18h-8.14a3.54,3.54,0,0,0-3.53,3.54v18.86a3.53,3.53,0,0,0,3.53,3.54h18.87a3.54,3.54,0,0,0,3.53-3.54V681.52a3.54,3.54,0,0,0-3.53-3.54h-8.14a2.61,2.61,0,0,1,2.6-2.59h11.66a2.6,2.6,0,0,1,2.6,2.6v14.25a5.2,5.2,0,0,0,10.39,0V668.91h7.78v1.29a5.2,5.2,0,0,0,5.19,5.19h6.47a2.6,2.6,0,0,1,2.6,2.6v3.88h-8.13a3.55,3.55,0,0,0-3.54,3.54v18.87a3.54,3.54,0,0,0,3.54,3.53h18.86a3.54,3.54,0,0,0,3.54-3.53V685.41a3.55,3.55,0,0,0-3.54-3.54Zm-50.4-45.39h41.74a.54.54,0,0,1,.53.54v21.51H641V637a.54.54,0,0,1,.53-.54Z" transform="translate(-617.65 -633.89)"/><path class="cls-2" d="M641,665.78v-4.66h42.8v4.66a.53.53,0,0,1-.53.53H641.52a.53.53,0,0,1-.53-.53Z" transform="translate(-617.65 -633.89)"/><rect class="cls-2" x="54.47" y="50.58" width="20.75" height="20.75" rx="0.94"/><rect class="cls-2" x="2.59" y="46.69" width="20.75" height="20.75" rx="0.94"/><path class="cls-1" d="M624.13,698.5h13a1.3,1.3,0,0,0,1.3-1.3v-13a1.3,1.3,0,0,0-1.3-1.3h-13a1.3,1.3,0,0,0-1.3,1.3v13A1.3,1.3,0,0,0,624.13,698.5Zm1.3-13H635.8V695.9H625.43Z" transform="translate(-617.65 -633.89)"/><path class="cls-1" d="M689,686.82H676a1.3,1.3,0,0,0-1.3,1.3v13a1.3,1.3,0,0,0,1.3,1.3h13a1.3,1.3,0,0,0,1.29-1.3v-13A1.3,1.3,0,0,0,689,686.82Zm-1.3,13H677.3V689.42h10.38Z" transform="translate(-617.65 -633.89)"/><path class="cls-1" d="M648.12,654.64a3.25,3.25,0,0,0,3.25-3.24v-6.49a3.25,3.25,0,0,0-6.49,0v6.49A3.25,3.25,0,0,0,648.12,654.64Zm0-2.59a.66.66,0,0,1-.65-.65v-1.95h1.3v1.95A.66.66,0,0,1,648.12,652.05Zm0-7.79a.66.66,0,0,1,.65.65v2h-1.3v-2A.66.66,0,0,1,648.12,644.26Z" transform="translate(-617.65 -633.89)"/><path class="cls-1" d="M656.55,655.94h11.68a1.3,1.3,0,0,0,1.29-1.3V640.37a1.29,1.29,0,0,0-1.29-1.29H656.55a1.29,1.29,0,0,0-1.29,1.29v14.27A1.3,1.3,0,0,0,656.55,655.94Zm1.3-14.27h9.08v11.67h-9.08Z" transform="translate(-617.65 -633.89)"/></svg>