<svg id="Layer_1" data-name="Layer 1" xmlns="http://www.w3.org/2000/svg" viewBox="0 0 65.29 93.27"><defs><style>.cls-1{fill:#70ccd8;}.cls-2{fill:#010101;}</style></defs><title>icon2</title><path class="cls-1" d="M686.09,714.38c0,.84-.68,0-1.53,0h-56c-.84,0-1.52.84-1.52,0V674.9c0-.84.68,0,1.52,0h56c.84,0,1.52-.84,1.52,0Z" transform="translate(-623.91 -624.21)"/><path class="cls-2" d="M684.56,633.54H665.88V632a7.79,7.79,0,0,0-7.77-7.78H655a7.79,7.79,0,0,0-7.77,7.78v1.55H628.54a4.63,4.63,0,0,0-4.63,4.64v74.67a4.63,4.63,0,0,0,4.63,4.64h56a4.64,4.64,0,0,0,4.64-4.64V638.18A4.64,4.64,0,0,0,684.56,633.54ZM650.33,632a4.67,4.67,0,0,1,4.67-4.67h3.11a4.67,4.67,0,0,1,4.66,4.67v1.55H650.33Zm18.38,4.66a4.67,4.67,0,0,1-4.38,3.11H648.78a4.67,4.67,0,0,1-4.38-3.11Zm17.38,76.2a1.52,1.52,0,0,1-1.53,1.53h-56a1.52,1.52,0,0,1-1.52-1.53V638.18a1.52,1.52,0,0,1,1.52-1.53h12.62a7.8,7.8,0,0,0,7.62,6.22h15.55a7.78,7.78,0,0,0,7.61-6.22h12.63a1.52,1.52,0,0,1,1.52,1.53Z" transform="translate(-623.91 -624.21)"/><path class="cls-2" d="M661.86,649.75a1.36,1.36,0,0,0-1.83-.61,1.33,1.33,0,0,0-.68.79L656.66,658l-1.51-5.29a1.36,1.36,0,0,0-1.68-.93,1.34,1.34,0,0,0-.79.61l-2,3.34-.91-8.23a1.35,1.35,0,0,0-1.5-1.2,1.32,1.32,0,0,0-1.14.92l-4.31,12.91-2.67-6.23a1.35,1.35,0,0,0-1.26-.81h-5.43v2.71H638l3.72,8.7a1.37,1.37,0,0,0,1.25.82H643a1.35,1.35,0,0,0,1.23-.93l3.48-10.44.68,6.08a1.35,1.35,0,0,0,1.5,1.2,1.34,1.34,0,0,0,1-.65l2.46-4.11,1.86,6.51a1.36,1.36,0,0,0,2.6,0l3-9.12,1.25,2.5a1.36,1.36,0,0,0,1.21.75h16.32v-2.72H664.19Z" transform="translate(-623.91 -624.21)"/><rect class="cls-2" x="6.22" y="54.41" width="52.85" height="3.11"/><rect class="cls-2" x="6.22" y="60.63" width="52.85" height="3.11"/><rect class="cls-2" x="6.22" y="66.85" width="52.85" height="3.11"/><rect class="cls-2" x="6.22" y="73.06" width="52.85" height="3.11"/><rect class="cls-2" x="6.22" y="79.28" width="52.85" height="3.11"/><path class="cls-1" d="M668.71,636.65a4.67,4.67,0,0,1-4.38,3.11H648.78a4.67,4.67,0,0,1-4.38-3.11Z" transform="translate(-623.91 -624.21)"/><rect class="cls-2" x="3.11" y="47.57" width="59.07" height="2.15"/></svg>