<svg id="Layer_1" data-name="Layer 1" xmlns="http://www.w3.org/2000/svg" viewBox="0 0 117.05 84.07"><defs><style>.cls-1{fill:#010101;}.cls-2{fill:#71ccd8;}.cls-3{fill:#70ccd8;}</style></defs><title>icon3</title><path class="cls-1" d="M713.36,709.32H706.8v-5.54a1.72,1.72,0,0,0-1.71-1.71h0a1.72,1.72,0,0,0-1.71,1.72v5.53l-25.67,0,0-22,17.77,0a3.38,3.38,0,0,0,3.39-3.39l0-17.93a3.42,3.42,0,0,0-1-2.4,3.36,3.36,0,0,0-2.4-1h0l-17.77,0v-7.1l25.67,0,.05,40.49a1.71,1.71,0,0,0,1.72,1.71h0a1.71,1.71,0,0,0,1.71-1.72l0-40.48h3.37a4.75,4.75,0,0,0,4.73-4.74v-4.5a4.73,4.73,0,0,0-4.73-4.72h-11a1.72,1.72,0,1,0,0,3.43h11a1.3,1.3,0,0,1,1.3,1.3v4.5a1.31,1.31,0,0,1-1.29,1.3l-32.48,0V645l13.71,0a1.72,1.72,0,0,0,0-3.43h0l-13.71,0v-8.06a4.73,4.73,0,0,0-4.74-4.73h0l-32.82,0a4.73,4.73,0,0,0-4.73,4.74v8.06l-32.48,0a4.73,4.73,0,0,0-4.72,4.74v4.5a4.73,4.73,0,0,0,4.73,4.72h3.4v5.13a1.72,1.72,0,1,0,3.43,0v-5.14l25.65,0v7.1l-17.76,0a3.4,3.4,0,0,0-3.39,3.4l0,17.92a3.38,3.38,0,0,0,3.39,3.39h0l17.77,0,0,22-25.72,0V668.56a1.72,1.72,0,0,0-3.43,0v40.88h-6.52a1.72,1.72,0,0,0,0,3.43h0l113.61-.13a1.72,1.72,0,1,0,0-3.43Zm-18-43.25,0,17.85-17.72,0,0-17.85Zm-92.51-13.85h0a1.28,1.28,0,0,1-.92-.38,1.3,1.3,0,0,1-.38-.91v-4.51a1.25,1.25,0,0,1,.38-.91,1.31,1.31,0,0,1,.91-.39l32.48,0v7.09ZM617.65,684l0-17.85,17.72,0,0,17.85Zm21.1-50.42a1.29,1.29,0,0,1,.38-.92,1.28,1.28,0,0,1,.92-.38l32.82,0h0a1.31,1.31,0,0,1,1.31,1.3l.08,75.82H670l0-30.26a5.46,5.46,0,0,0-1.56-3.83,5.32,5.32,0,0,0-3.8-1.6h0l-16.12,0a5.26,5.26,0,0,0-3.8,1.61,5.42,5.42,0,0,0-1.56,3.83l0,30.26h-4.29Zm7.77,45.55a2,2,0,0,1,.58-1.43,1.88,1.88,0,0,1,1.35-.58l16.12,0h0a1.87,1.87,0,0,1,1.35.57,2.05,2.05,0,0,1,.58,1.44l0,30.25-20,0Z" transform="translate(-598.03 -628.82)"/><path class="cls-1" d="M645.39,658.12h5.72v5.72a3.2,3.2,0,0,0,3.2,3.2h4.36a3.21,3.21,0,0,0,3.2-3.21V658.1h5.72a3.2,3.2,0,0,0,3.2-3.2v-4.35a3.19,3.19,0,0,0-3.2-3.2h-5.72v-5.73a3.21,3.21,0,0,0-3.2-3.2h-4.36a3.19,3.19,0,0,0-3.19,3.21v5.72h-5.72a3.19,3.19,0,0,0-2.26.95,3.15,3.15,0,0,0-.94,2.26v4.35a3.21,3.21,0,0,0,3.2,3.2Zm7.43-7.33a1.72,1.72,0,0,0,1.72-1.72v-7.21h3.89v7.21a1,1,0,0,0,0,.17,1.71,1.71,0,0,0,1.7,1.54h7.21v3.89h-7.21a1.71,1.71,0,0,0-1.71,1.72v7.21h-3.89v-7.21a1.71,1.71,0,0,0-1.71-1.71h-7.21V650.8Z" transform="translate(-598.03 -628.82)"/><rect class="cls-2" x="677.66" y="668.35" width="17.73" height="17.85" transform="translate(-598.81 -628.03) rotate(-0.07)"/><path class="cls-2" d="M602.86,654.49h0a1.3,1.3,0,0,1-1.3-1.3v-4.5a1.28,1.28,0,0,1,.38-.92,1.3,1.3,0,0,1,.91-.38l32.48,0v7.1Z" transform="translate(-598.03 -628.82)"/><rect class="cls-3" x="617.64" y="668.42" width="17.73" height="17.85" transform="translate(-598.81 -628.1) rotate(-0.07)"/><path class="cls-2" d="M646.52,681.4a2,2,0,0,1,.58-1.43,1.87,1.87,0,0,1,1.35-.57l16.12,0h0a1.87,1.87,0,0,1,1.35.57,2,2,0,0,1,.58,1.43l0,30.26-20,0Z" transform="translate(-598.03 -628.82)"/><path class="cls-2" d="M652.82,653.05a1.72,1.72,0,0,0,1.72-1.71v-7.21h3.89v7.21a1.09,1.09,0,0,0,0,.18,1.71,1.71,0,0,0,1.7,1.54h7.21v3.89h-7.21a1.7,1.7,0,0,0-1.71,1.71v7.21h-3.89v-7.21a1.7,1.7,0,0,0-1.71-1.71h-7.21v-3.89Z" transform="translate(-598.03 -628.82)"/></svg>