<svg id="Layer_1" data-name="Layer 1" xmlns="http://www.w3.org/2000/svg" viewBox="0 0 78.38 78.38"><defs><style>.cls-1{fill:#70ccd8;}.cls-2{fill:#010101;}</style></defs><title>icon4</title><rect class="cls-1" x="3.27" y="9.8" width="71.85" height="17.96"/><path class="cls-2" d="M638.59,680.65h-9.8a1.63,1.63,0,0,1-1.63-1.63v-9.8a1.63,1.63,0,0,1,1.63-1.63h9.8a1.63,1.63,0,0,1,1.63,1.63V679A1.63,1.63,0,0,1,638.59,680.65Zm-8.16-3.27H637v-6.53h-6.53Z" transform="translate(-617.36 -631.66)"/><path class="cls-2" d="M638.59,700.24h-9.8a1.63,1.63,0,0,1-1.63-1.63v-9.8a1.63,1.63,0,0,1,1.63-1.63h9.8a1.63,1.63,0,0,1,1.63,1.63v9.8A1.63,1.63,0,0,1,638.59,700.24ZM630.43,697H637v-6.53h-6.53Z" transform="translate(-617.36 -631.66)"/><path class="cls-2" d="M660.54,680.65h-9.8a1.63,1.63,0,0,1-1.63-1.63v-9.8a1.63,1.63,0,0,1,1.63-1.63h9.8a1.63,1.63,0,0,1,1.63,1.63V679A1.63,1.63,0,0,1,660.54,680.65Zm-8.17-3.27h6.53v-6.53h-6.53Z" transform="translate(-617.36 -631.66)"/><path class="cls-2" d="M661.45,700.24h-9.8a1.63,1.63,0,0,1-1.63-1.63v-9.8a1.63,1.63,0,0,1,1.63-1.63h9.8a1.63,1.63,0,0,1,1.63,1.63v9.8A1.63,1.63,0,0,1,661.45,700.24ZM653.29,697h6.53v-6.53h-6.53Z" transform="translate(-617.36 -631.66)"/><path class="cls-2" d="M684.31,680.65h-9.79a1.63,1.63,0,0,1-1.64-1.63v-9.8a1.63,1.63,0,0,1,1.64-1.63h9.79a1.64,1.64,0,0,1,1.64,1.63V679A1.64,1.64,0,0,1,684.31,680.65Zm-8.16-3.27h6.53v-6.53h-6.53Z" transform="translate(-617.36 -631.66)"/><path class="cls-2" d="M687.58,710H625.53a8.18,8.18,0,0,1-8.17-8.16V646.36a8.19,8.19,0,0,1,8.17-8.17h62.05a8.18,8.18,0,0,1,8.16,8.17v55.52A8.17,8.17,0,0,1,687.58,710Zm-62.05-68.58a4.91,4.91,0,0,0-4.9,4.9v55.52a4.91,4.91,0,0,0,4.9,4.9h62.05a4.91,4.91,0,0,0,4.9-4.9V646.36a4.91,4.91,0,0,0-4.9-4.9Z" transform="translate(-617.36 -631.66)"/><path class="cls-2" d="M694.11,661.05H619a1.63,1.63,0,1,1,0-3.26h75.11a1.63,1.63,0,0,1,0,3.26Z" transform="translate(-617.36 -631.66)"/><path class="cls-2" d="M635.32,648a1.63,1.63,0,0,1-1.63-1.63V633.29a1.64,1.64,0,0,1,3.27,0v13.07A1.63,1.63,0,0,1,635.32,648Z" transform="translate(-617.36 -631.66)"/><path class="cls-2" d="M677.78,648a1.63,1.63,0,0,1-1.63-1.63V633.29a1.63,1.63,0,0,1,3.26,0v13.07A1.63,1.63,0,0,1,677.78,648Z" transform="translate(-617.36 -631.66)"/><rect class="cls-1" x="35.71" y="57.64" width="6.53" height="6.53"/><rect class="cls-1" x="12.84" y="57.64" width="6.53" height="6.53"/><rect class="cls-1" x="12.84" y="38.04" width="6.53" height="6.53"/><rect class="cls-1" x="34.79" y="38.04" width="6.53" height="6.53"/><rect class="cls-1" x="58.57" y="38.04" width="6.53" height="6.53"/></svg>