<svg id="Layer_1" data-name="Layer 1" xmlns="http://www.w3.org/2000/svg" viewBox="0 0 83.19 83.55"><defs><style>.cls-1{fill:#71ccd8;}.cls-2{fill:#010101;}</style></defs><title>icon5</title><path class="cls-1" d="M656.05,658.58l9.53-5.51V657l3.38,4.76,5.64-13.84,7.64,7.14v8.11l2.15,1.62a26.73,26.73,0,0,1,1,21.74,36.13,36.13,0,0,1-13.72,17l-4.22-8,2.58-4.87,4.6-.93,3.94-7.85-1.42-5.63-3.71-.53L670,676.91l-8.87-3.8-.85-7.2-4.23-2.73Z" transform="translate(-616.23 -627.75)"/><path class="cls-2" d="M689.32,674.75a36,36,0,0,0-.55-6.3l-3,.52A33.47,33.47,0,0,1,672,702.16l-2.46-4a4.54,4.54,0,0,1-.19-4.43l.69-1.38a1.53,1.53,0,0,1,1.36-.85h2.15a4.53,4.53,0,0,0,4.24-2.87l2.06-5.15a4.51,4.51,0,0,0,.33-1.7v-3.35a3,3,0,0,0-.89-2.15l-1.83-1.83a3,3,0,0,0-3.51-.57l-3.75,1.87a1.48,1.48,0,0,1-1.36,0l-6.09-3a1.52,1.52,0,0,1-.84-1.36v-4.21a3,3,0,0,0-3-3,1.53,1.53,0,0,1-1.52-1.53v-1.52a1.54,1.54,0,0,1,.61-1.22l8.79-7.68-1.83-2.43-8.79,7.68a4.58,4.58,0,0,0-1.82,3.65v1.52a4.56,4.56,0,0,0,4.56,4.57v4.21a4.57,4.57,0,0,0,2.53,4.09l6.09,3a4.6,4.6,0,0,0,4.09,0l3.74-1.87,1.83,1.82v3.35a1.56,1.56,0,0,1-.11.57L675,687.5a1.52,1.52,0,0,1-1.41,1h-2.15a4.55,4.55,0,0,0-4.09,2.53l-.69,1.38a7.58,7.58,0,0,0,.32,7.38l2.48,4.06a33.37,33.37,0,0,1-30.62,1.38l1.86-1.25a1.56,1.56,0,0,1,.84-.25h3.91a4.55,4.55,0,0,0,3.23-1.34L653,698a4.55,4.55,0,0,0,1.34-3.23v-7a4.62,4.62,0,0,0-.65-2.35L650.4,680a4.61,4.61,0,0,0-3.91-2.19h-4.27a4.58,4.58,0,0,0-3.81,2l-1.68,2.54H633a3,3,0,0,0-3.05,3v2.91a1.51,1.51,0,0,1-.7,1.28l-4.75,3.06a33.39,33.39,0,0,1-5.21-17.91c0-.51,0-1,0-1.52H622a1.53,1.53,0,0,1,1.36.84l1.78,3.58a3,3,0,0,0,2.73,1.67h1.61a3,3,0,0,0,2.93-3.88l-1.94-6.78h3a4.57,4.57,0,0,0,2.86-1l5-4a4.58,4.58,0,0,0,1.34-5.37l-2.6-6.09a1.53,1.53,0,0,1,.61-1.91l3.84-2.3a4.57,4.57,0,0,0,2.21-4l0-2.23a33.43,33.43,0,0,1,14.79.56l.78-2.94a36.54,36.54,0,1,0,27.11,35.31Z" transform="translate(-616.23 -627.75)"/><path class="cls-2" d="M665.26,640.4l-.88,14.89a7.63,7.63,0,0,0,2.22,5.83l2.95,3,5.38-14,5.44,5.43v6.72a4.55,4.55,0,0,0,1.33,3.23l2.64,2.64,3.23-5.39.78.78a4.57,4.57,0,1,0,6.46-6.46l-.77-.77,5.38-3.24-2.64-2.64a4.55,4.55,0,0,0-3.23-1.34h-6.72l-5.43-5.43,14-5.38-3-3a7.59,7.59,0,0,0-5.83-2.21l-14.9.87-4.89-4.9a4.7,4.7,0,0,0-6.47,0,4.57,4.57,0,0,0,0,6.46Zm3.15,18.18a4.6,4.6,0,0,1-1-3.11l.72-12.18,4.44,4.44Zm15.33,4.6a1.54,1.54,0,0,1-.33-.95v-3.67l2,1.94Zm9.81-11.09a1.51,1.51,0,0,1,1,.34L691.82,654l-2-1.94Zm-6.77-16a4.59,4.59,0,0,1,3.11,1L679,641.26l-4.44-4.44Zm-24.27-4.9a1.51,1.51,0,0,1,2.15,0l28,28a1.53,1.53,0,0,1,0,2.15,1.56,1.56,0,0,1-2.16,0l-28-28A1.53,1.53,0,0,1,662.51,631.2Z" transform="translate(-616.23 -627.75)"/><path class="cls-1" d="M643.6,642.54l0,1.55a1.56,1.56,0,0,1-.74,1.33l-3.84,2.3a4.6,4.6,0,0,0-1.85,5.72l2.61,6.09a1.52,1.52,0,0,1-.45,1.79l-5,4a1.54,1.54,0,0,1-1,.33h-3a3,3,0,0,0-2.93,3.88l1.94,6.78h-1.61L626,672.71a4.52,4.52,0,0,0-4.08-2.52h-2.37A33.61,33.61,0,0,1,643.6,642.54Z" transform="translate(-616.23 -627.75)"/><path class="cls-1" d="M626.23,695.16l4.66-3a4.58,4.58,0,0,0,2.09-3.84v-2.91h3.75a3,3,0,0,0,2.53-1.35l1.69-2.54a1.54,1.54,0,0,1,1.27-.67h4.27a1.53,1.53,0,0,1,1.3.72L651,687a1.42,1.42,0,0,1,.22.78v7a1.53,1.53,0,0,1-.45,1.08l-4.3,4.3a1.53,1.53,0,0,1-1.08.45h-3.91a4.56,4.56,0,0,0-2.53.77l-3.25,2.17A33.85,33.85,0,0,1,626.23,695.16Z" transform="translate(-616.23 -627.75)"/></svg>